<svg id="Layer_1" data-name="Layer 1" xmlns="http://www.w3.org/2000/svg" viewBox="0 0 96 96"><title>icon-load-more</title><path d="M94.59,17.41l-5.2,5.2a48,48,0,0,0-87.17,23A4,4,0,0,0,5.84,50H6.21a4,4,0,0,0,4-3.64A39.77,39.77,0,0,1,50,10,40.17,40.17,0,0,1,83.63,28.37l-6.21,6.21A2,2,0,0,0,78.83,38H96a2,2,0,0,0,2-2V18.83A2,2,0,0,0,94.59,17.41Z" transform="translate(-2 -2)"/><path d="M94.16,50a4,4,0,0,0-4.34,3.63A39.76,39.76,0,0,1,50,90,40.23,40.23,0,0,1,16.39,71.61l6.19-6.19A2,2,0,0,0,21.17,62H4a2,2,0,0,0-2,2V81.17a2,2,0,0,0,3.41,1.41l5.2-5.2A48.29,48.29,0,0,0,50,98,47.73,47.73,0,0,0,97.78,54.36,4,4,0,0,0,94.16,50Z" transform="translate(-2 -2)"/></svg>