<svg id="Layer_1" data-name="Layer 1" xmlns="http://www.w3.org/2000/svg" viewBox="0 0 512.84 512.84"><defs><style>.cls-1{fill:none;stroke:#000;stroke-miterlimit:10;stroke-width:4px;}</style></defs><title>icon-youtube</title><circle cx="256.5" cy="256.5" r="252.5"/><circle class="cls-1" cx="256.42" cy="256.42" r="254.42"/><path d="M357.55,222.1s-1.89-13.34-7.69-19.21c-7.36-7.71-15.61-7.75-19.39-8.2-27.08-2-67.7-2-67.7-2h-0.08s-40.62,0-67.7,2c-3.78.45-12,.49-19.39,8.2-5.8,5.87-7.69,19.21-7.69,19.21A292.66,292.66,0,0,0,166,253.42V268.1a292.66,292.66,0,0,0,1.94,31.32s1.89,13.34,7.69,19.21c7.36,7.71,17,7.46,21.34,8.27,15.48,1.48,65.79,1.94,65.79,1.94s40.66-.06,67.74-2c3.78-.45,12-0.49,19.39-8.2,5.8-5.87,7.69-19.21,7.69-19.21a293.08,293.08,0,0,0,1.93-31.32V253.42a293.09,293.09,0,0,0-1.93-31.32m-114.8,63.79V231.52L295,258.8Z" transform="translate(-4 1)"/></svg>