<?xml version="1.0" encoding="utf-8"?>
<!-- Generator: Adobe Illustrator 19.2.1, SVG Export Plug-In . SVG Version: 6.00 Build 0)  -->
<svg version="1.1" id="Layer_1" xmlns="http://www.w3.org/2000/svg" xmlns:xlink="http://www.w3.org/1999/xlink" x="0px" y="0px"
	 viewBox="0 0 60 60" style="enable-background:new 0 0 60 60;" xml:space="preserve">
<g>
	<g>
		<g>
			<path d="M30,3c14.9,0,27,12.1,27,27c0,14.9-12.1,27-27,27S3,44.9,3,30C3,15.1,15.1,3,30,3 M30,0C13.5,0,0,13.5,0,30
				c0,16.5,13.5,30,30,30s30-13.5,30-30C60,13.5,46.5,0,30,0L30,0z"/>
		</g>
		<path d="M29.3,17.7c-0.9-0.9-2.4-0.9-3.3,0C25,18.6,25,20.1,26,21l9.1,9L26,39c-0.9,0.9-0.9,2.4,0,3.3c0.5,0.5,1.1,0.7,1.7,0.7
			c0.6,0,1.2-0.2,1.7-0.7L40,31.7c0.9-0.9,0.9-2.4,0-3.3L29.3,17.7z"/>
	</g>
</g>
</svg>
