<svg id="Layer_1" data-name="Layer 1" xmlns="http://www.w3.org/2000/svg" viewBox="0 0 49.56 67.89"><title>icon-map-marker-office</title><path fill="yellow" d="M23.89,66.28c-1-1-23.39-23.81-23.39-41.49a24.29,24.29,0,0,1,48.57,0c0,17.68-22.41,40.52-23.41,41.49l-0.9.9Zm0.9-55.82a13,13,0,1,0,13,13h0A13,13,0,0,0,24.79,10.46Z"/><path fill="yellow" d="M24.79,1A23.81,23.81,0,0,1,48.58,24.79c0,17.48-22.29,40.18-23.24,41.14l-0.54.55-0.54-.55C23.3,65,1,42.27,1,24.79A23.81,23.81,0,0,1,24.79,1m0,36a13.5,13.5,0,1,0-13.5-13.5h0A13.52,13.52,0,0,0,24.79,37m0-37A24.81,24.81,0,0,0,0,24.79C0,42.73,22.57,65.67,23.53,66.63l1.25,1.26L26,66.63c1-1,23.53-23.9,23.53-41.84A24.81,24.81,0,0,0,24.79,0h0Zm0,36a12.5,12.5,0,1,1,12.5-12.5h0A12.52,12.52,0,0,1,24.79,36h0Z"/><circle fill="yellow" cx="24.9" cy="23.46" r="13.75"/><path d="M15.15,13.32v26.3H34.5V13.32H15.15ZM17,21.88h4.1v4.45H17V21.88Zm4.1,10.9H17V28.33h4.1v4.45Zm0-13.13H17V15.21h4.1v4.45h0Zm1.69,2.22h4.1v4.45h-4.1V21.88Zm4.1,10.9h-4.1V28.33h4.1v4.45Zm0-13.13H22.75V15.21h4.1v4.45h0Zm1.69,2.22h4.1v4.45h-4.1V21.88Zm4.1,10.9h-4.1V28.33h4.1v4.45Zm0-13.13H28.53V15.21h4.1v4.45h0Z"/></svg>
