<?xml version="1.0" encoding="utf-8"?>
<!-- Generator: Adobe Illustrator 19.2.1, SVG Export Plug-In . SVG Version: 6.00 Build 0)  -->
<svg version="1.1" id="Icons" xmlns="http://www.w3.org/2000/svg" xmlns:xlink="http://www.w3.org/1999/xlink" x="0px" y="0px"
	 viewBox="0 0 676 720" style="enable-background:new 0 0 676 720;" xml:space="preserve">
<symbol  id="New_Symbol_9" viewBox="-7.7 -7.6 15.5 15.1">
	<path d="M7.3-5L4.4-2.1c0.5,0.9,0.8,2,0.8,3.2c0,3.6-2.9,6.5-6.5,6.5s-6.5-2.9-6.5-6.5s2.9-6.5,6.5-6.5c1.3,0,2.6,0.4,3.6,1.1
		l2.8-2.8c0.3-0.3,0.7-0.4,1.1-0.4S7-7.4,7.3-7.1C7.9-6.5,7.9-5.6,7.3-5z M-5.7,1.1c0,2.5,2,4.5,4.5,4.5c2.5,0,4.5-2,4.5-4.5
		c0-2.5-2-4.5-4.5-4.5C-3.7-3.4-5.7-1.4-5.7,1.1z"/>
</symbol>
<use xlink:href="#New_Symbol_9"  width="15.5" height="15.1" x="-7.7" y="-7.6" transform="matrix(1 0 0 -1 316.004 36.0513)" style="overflow:visible;"/>
</svg>
