<?xml version="1.0" encoding="utf-8"?>
<!-- Generator: Adobe Illustrator 19.2.1, SVG Export Plug-In . SVG Version: 6.00 Build 0)  -->
<svg version="1.1" id="Layer_1" xmlns="http://www.w3.org/2000/svg" xmlns:xlink="http://www.w3.org/1999/xlink" x="0px" y="0px"
	 viewBox="0 0 100 125" style="enable-background:new 0 0 100 125;" xml:space="preserve">
<path fill="#fff" d="M34.4,52.6c0,0.8-0.6,1.5-1.4,1.5h-2.7c-0.8,0-1.4-0.7-1.4-1.5v-2.6c0-0.8,0.6-1.5,1.4-1.5H33c0.8,0,1.4,0.7,1.4,1.5V52.6z
	 M34.4,59.2c0-0.8-0.6-1.5-1.4-1.5h-2.7c-0.8,0-1.4,0.7-1.4,1.5v2.6c0,0.8,0.6,1.5,1.4,1.5H33c0.8,0,1.4-0.7,1.4-1.5V59.2z
	 M34.4,68.4c0-0.8-0.6-1.4-1.4-1.4h-2.7c-0.8,0-1.4,0.7-1.4,1.4v2.6c0,0.8,0.6,1.5,1.4,1.5H33c0.8,0,1.4-0.7,1.4-1.5V68.4z
	 M43.6,50.1c0-0.8-0.6-1.5-1.4-1.5h-2.7c-0.8,0-1.4,0.7-1.4,1.5v2.6c0,0.8,0.6,1.5,1.4,1.5h2.7c0.8,0,1.4-0.7,1.4-1.5V50.1z
	 M43.6,59.2c0-0.8-0.6-1.5-1.4-1.5h-2.7c-0.8,0-1.4,0.7-1.4,1.5v2.6c0,0.8,0.6,1.5,1.4,1.5h2.7c0.8,0,1.4-0.7,1.4-1.5V59.2z
	 M43.6,68.4c0-0.8-0.6-1.4-1.4-1.4h-2.7c-0.8,0-1.4,0.7-1.4,1.4v2.6c0,0.8,0.6,1.5,1.4,1.5h2.7c0.8,0,1.4-0.7,1.4-1.5V68.4z
	 M52.7,50.1c0-0.8-0.6-1.5-1.4-1.5h-2.7c-0.8,0-1.4,0.7-1.4,1.5v2.6c0,0.8,0.6,1.5,1.4,1.5h2.7c0.8,0,1.4-0.7,1.4-1.5V50.1z
	 M52.7,59.2c0-0.8-0.6-1.5-1.4-1.5h-2.7c-0.8,0-1.4,0.7-1.4,1.5v2.6c0,0.8,0.6,1.5,1.4,1.5h2.7c0.8,0,1.4-0.7,1.4-1.5V59.2z
	 M52.7,68.4c0-0.8-0.6-1.4-1.4-1.4h-2.7c-0.8,0-1.4,0.7-1.4,1.4v2.6c0,0.8,0.6,1.5,1.4,1.5h2.7c0.8,0,1.4-0.7,1.4-1.5V68.4z
	 M61.9,50.1c0-0.8-0.6-1.5-1.4-1.5h-2.7c-0.8,0-1.4,0.7-1.4,1.5v2.6c0,0.8,0.6,1.5,1.4,1.5h2.7c0.8,0,1.4-0.7,1.4-1.5L61.9,50.1
	L61.9,50.1z M61.9,59.2c0-0.8-0.6-1.5-1.4-1.5h-2.7c-0.8,0-1.4,0.7-1.4,1.5v2.6c0,0.8,0.6,1.5,1.4,1.5h2.7c0.8,0,1.4-0.7,1.4-1.5
	L61.9,59.2L61.9,59.2z M61.9,68.4c0-0.8-0.6-1.4-1.4-1.4h-2.7c-0.8,0-1.4,0.7-1.4,1.4v2.6c0,0.8,0.6,1.5,1.4,1.5h2.7
	c0.8,0,1.4-0.7,1.4-1.5L61.9,68.4L61.9,68.4z M71.1,50.1c0-0.8-0.6-1.5-1.4-1.5H67c-0.8,0-1.4,0.7-1.4,1.5v2.6
	c0,0.8,0.6,1.5,1.4,1.5h2.7c0.8,0,1.4-0.7,1.4-1.5V50.1z M71.1,59.2c0-0.8-0.6-1.5-1.4-1.5H67c-0.8,0-1.4,0.7-1.4,1.5v2.6
	c0,0.8,0.6,1.5,1.4,1.5h2.7c0.8,0,1.4-0.7,1.4-1.5V59.2z M81,28.6v48.9c0,2.6-2.1,4.7-4.7,4.7H23.7c-2.6,0-4.7-2.1-4.7-4.7V28.6
	c0-2.6,2.1-4.7,4.7-4.7H30v-4.4c0-1,0.8-1.8,1.8-1.8c1,0,1.7,0.8,1.7,1.8v4.4h33v-4.4c0-1,0.8-1.8,1.8-1.8s1.8,0.8,1.8,1.8v4.4h6.3
	C78.9,23.9,81,26,81,28.6z M22.5,28.6v10h55v-10c0-0.7-0.6-1.2-1.2-1.2H70v3.9c0,1-0.8,1.8-1.8,1.8s-1.8-0.8-1.8-1.8v-3.9h-33v3.9
	c0,1-0.8,1.8-1.8,1.8S30,32.3,30,31.3v-3.9h-6.3C23,27.4,22.5,28,22.5,28.6z M77.5,77.5V42.2h-55v35.4c0,0.7,0.6,1.2,1.2,1.2h52.6
	C77,78.7,77.5,78.2,77.5,77.5z"/>
</svg>
