<svg id="Layer_1" data-name="Layer 1" xmlns="http://www.w3.org/2000/svg" viewBox="0 0 94.36 74.38">
<title>icon-quote2</title>
<path d="M434.38,309.74q12-5.82,18.83-13.56a32.31,32.31,0,0,0,7.87-18.75h-6a32.44,32.44,0,0,1-10.74-1.48,17.11,17.11,0,0,1-6.7-4.13,13.74,13.74,0,0,1-3.46-5.56,20.7,20.7,0,0,1-1-6.41A15.74,15.74,0,0,1,438.69,248a18.33,18.33,0,0,1,12.91-5.09q11.68,0,17.95,7.73t6.27,21.4q0,12.71-10.78,25.64a70.19,70.19,0,0,1-26,19.6Z" transform="translate(-433.22 -242.89)"/><path d="M486.15,309.74q12-5.82,18.83-13.56a32.31,32.31,0,0,0,7.87-18.75h-6a32.44,32.44,0,0,1-10.74-1.48,17.12,17.12,0,0,1-6.7-4.13,13.74,13.74,0,0,1-3.46-5.56,20.7,20.7,0,0,1-1-6.41A15.74,15.74,0,0,1,490.46,248a18.32,18.32,0,0,1,12.91-5.09q11.68,0,18,7.73t6.27,21.4q0,12.71-10.78,25.64a70.19,70.19,0,0,1-26,19.6Z" transform="translate(-433.22 -242.89)"/></svg>
