<?xml version="1.0" encoding="utf-8"?>
<!-- Generator: Adobe Illustrator 19.2.1, SVG Export Plug-In . SVG Version: 6.00 Build 0)  -->
<svg version="1.1" id="Layer_1" xmlns="http://www.w3.org/2000/svg" xmlns:xlink="http://www.w3.org/1999/xlink" x="0px" y="0px"
	 viewBox="0 0 60 60" style="enable-background:new 0 0 60 60;" xml:space="preserve">
<g>
	<path d="M30,60c16.5,0,30-13.5,30-30C60,13.5,46.5,0,30,0S0,13.5,0,30C0,46.5,13.5,60,30,60z M26,21c-0.9-0.9-0.9-2.4,0-3.3
		c0.9-0.9,2.4-0.9,3.3,0L40,28.3c0.9,0.9,0.9,2.4,0,3.3L29.3,42.3c-0.5,0.5-1.1,0.7-1.7,0.7c-0.6,0-1.2-0.2-1.7-0.7
		C25,41.4,25,39.9,26,39l9.1-9L26,21z"/>
</g>
</svg>
