<?xml version="1.0" encoding="utf-8"?>
<!-- Generator: Adobe Illustrator 19.2.1, SVG Export Plug-In . SVG Version: 6.00 Build 0)  -->
<svg version="1.1" id="Layer_1" xmlns="http://www.w3.org/2000/svg" xmlns:xlink="http://www.w3.org/1999/xlink" x="0px" y="0px"
	 viewBox="0 0 100 125" style="enable-background:new 0 0 100 125;" xml:space="preserve">
<path d="M94.6,17.4l-5.2,5.2C80.5,9.9,65.8,2,50,2C25,2,4.5,20.8,2.2,45.6C2,47.8,3.6,49.8,5.8,50c0.1,0,0.2,0,0.4,0
	c2,0,3.8-1.6,4-3.6C12.1,25.6,29.2,10,50,10c13.7,0,26.3,7.1,33.6,18.4l-6.2,6.2C76.2,35.8,77,38,78.8,38H96c1.1,0,2-0.9,2-2V18.8
	C98,17,95.8,16.2,94.6,17.4z"/>
<path d="M94.2,50c-2.2-0.2-4.1,1.4-4.3,3.6C87.9,74.4,70.8,90,50,90c-13.6,0-26.3-7.1-33.6-18.4l6.2-6.2c1.3-1.3,0.4-3.4-1.4-3.4H4
	c-1.1,0-2,0.9-2,2v17.2c0,1.8,2.2,2.7,3.4,1.4l5.2-5.2C19.5,90.1,34.2,98,50,98c25,0,45.5-18.8,47.8-43.6C98,52.2,96.4,50.2,94.2,50
	z"/>
</svg>
