<svg id="Layer_1" data-name="Layer 1" xmlns="http://www.w3.org/2000/svg" viewBox="0 0 154.03 152.03"><defs><style>.cls-1{fill:#fff;}.cls-2{fill:#231f20;}</style></defs><title>icon-career</title><path d="M407.33,383.08l-1.26,5.13-1,5.3,0-.3,0,4.68v-0.18l0.69,6v0.18l0,6,0-.29L407,416.5l1.17,6.86,0,0.09v0.1l0.24,4.3L408.6,430l0.08,2.15,0.17,4.31,0.08,2.15,0,0.54v0.66l0,1.08-0.26,8.62-0.3,8.61V458l0.66,9.38,0,0.59,0.06,0.49,0.14,1.17,0.28,2.33,0.56,4.67,0,0.2,0,0.2-0.67,7,0-.51h0l0.2,5.83-0.27-.54h0a8.85,8.85,0,0,1,2,1.23,13.87,13.87,0,0,1,1.64,1.55l-0.34-.3a17.94,17.94,0,0,1,2.07,1.66,11.34,11.34,0,0,1,1.8,2l-0.26-.13h0l5.05,0.63-0.64-.13h0l7.35,0.4h-0.26l4.87-.33,2.43-.16,1.22-.08h0.21l0.3,0,0.61-.07,9.69-1.12,0.21,0h0.17l14.37,1.14h-0.24l12-.68,12-.76h0.16l0.13,0,15.37,1.82h-0.2l11.71-.22h0.1l7.66,0.36,1,0H522l0.43,0c0.6,0,1.24-.09,1.87-0.16,1.26-.13,2.54-0.27,3.8-0.42h0.16l8,0.08-0.29,0h0l6-1.67-0.23.09,2.45-1.29,1.25-.62,0.66-.3,0.38-.15,0.1,0h0l-0.09,0h0l0,0,0.15-.07,0.12-.09,0.24-.17,0.49-.39c0.33-.27.67-0.56,1-0.86,0.66-.59,1.32-1.22,1.95-1.85l-0.3.55,1.34-6.35,0,0.13,0.33-3.68,0.08,0.53-2-4.68h0l-0.08-.19v-0.24l-0.16-6,0,0.26-1.47-6.33,0-.11v-0.18l-0.1-4.77,0-2.39V453l0.06-1.19,0.45-9.53v-0.06l0-.11c0.49-3.35,1-6.69,1.53-10l0.38-2.45,0.32-2.52,0.63-5v0.14l0.61-13.38,0,0.37-0.77-5.49L551,401l-0.09-.69v-0.11l0,0.1h0v0l0-.17-0.06-.34-0.24-1.37-0.48-2.73-0.22-1.37-0.06-.34h0l0,0.07v-0.06l0-.08,0-.17-0.14-.68c-0.35-1.82-.74-3.63-1-5.46h0l0.2,0.4L544,384.05h0l0.8,0.67-6-3.64c-0.33-.2-0.52-0.33-0.79-0.49l-0.74-.47-1.49-.94-3-1.89h0l0.43,0.17q-1.77-.37-3.52-0.8c-1.17-.28-2.33-0.6-3.5-0.89l0.26,0L523,375.4l-3.41-.44-3.42-.41c-1.14-.12-2.28-0.22-3.42-0.31h0.08l-16.72,0h0.11l-10.06,1-2.51.26-0.63.07-0.16,0h-0.54l-1.26.06-5,.24-5,.24-2.52.12-1.26.06h-0.4l-0.16,0-0.63.07-10,1.1-5,.55-5.06.46-5,.45-1.26.11-0.63.06h-0.7l-2.52.1-5,.19-2.46.1-2.52.21-10.07.85h-0.18c-0.37,0-.81,0-1.22,0s-0.84,0-1.25.09a16.94,16.94,0,0,0-2.42.41,11,11,0,0,0-1.12.34c-0.18.06-.34,0.15-0.51,0.22a3,3,0,0,0-.47.24,2.07,2.07,0,0,0-.41.27,2,2,0,0,0-.34.29c-0.08.11-.2,0.2-0.26,0.3A2.13,2.13,0,0,1,407.33,383.08Zm-2.93-1.23c0.16-.29.33-0.57,0.5-0.84a7.27,7.27,0,0,1,.62-0.71,4.89,4.89,0,0,1,.69-0.57,4.57,4.57,0,0,1,.72-0.46,5.56,5.56,0,0,1,.73-0.37c0.24-.1.49-0.22,0.73-0.3a14.06,14.06,0,0,1,1.45-.43,20,20,0,0,1,2.88-.45c0.48,0,1-.07,1.43-0.08s0.93,0,1.46,0h-0.18l10.08-.74,2.52-.18,2.59-.08,5.05-.13,2.53-.07h0.56l0.63,0,1.26-.1,5-.39,5-.39,5-.49,10.06-1,0.63-.06,0.16,0h0.55l1.26,0,2.53-.09,5.05-.18,5.05-.18,1.26,0h0.56l0.63-.06L486,373,496,372h0.11l16.72,0h0.08c1.14,0.08,2.29.15,3.43,0.19l3.44,0.09,3.44,0.06,3.44,0.11h0.09l0.17,0c1.17,0.26,2.35.5,3.53,0.78s2.34,0.56,3.5.87l0.18,0,0.24,0.12h0l3.17,1.53,1.59,0.76L540,377c0.25,0.12.57,0.28,0.75,0.36l6.41,2.91,0.62,0.28,0.18,0.39h0l2.58,5.55,0.2,0.4h0c0.64,1.74,1.19,3.51,1.78,5.27l0.21,0.66,0.05,0.17,0,0.08v0l0,0.12,0.09,0.34,0.35,1.34,0.67,2.69,0.33,1.35,0.08,0.34,0,0.17,0.05,0.28,0.12,0.68,0.46,2.74,0.86,5.48,0,0.18V409l-0.73,13.37v0.15l-0.68,5-0.34,2.51-0.42,2.56c-0.55,3.34-1.13,6.67-1.72,10l0-.17L551.3,452l-0.09,1.19,0,0.3v0h0v-0.09h0v0.86l0,2.39-0.1,4.77,0-.29,1.2,6.38,0,0.16v0.1l-0.16,6-0.09-.43h0l2,4.68,0.11,0.26,0,0.28-0.33,3.68v0.13l-1.34,6.35-0.07.32-0.23.23c-0.67.66-1.33,1.29-2,1.92-0.35.31-.7,0.62-1.07,0.93l-0.58.46-0.32.23c-0.12.08-.31,0.19-0.46,0.27l-0.16.07-0.22.09-0.26.11-0.58.27-1.2.6-2.4,1.27-0.12.06-0.11,0-6,1.67h0l-0.13,0h-0.16l-8,.08h0.16c-1.28.18-2.56,0.35-3.85,0.51-0.65.08-1.29,0.15-2,.2l-0.53,0h-0.51l-1,0-7.76-.21h0.1l-11.7.45H501l-15.4-1.52h0.29l-12,1-12,.92h-0.25l-14.39-.87h0.38l-9.67,1.3-0.6.08-0.3,0-0.4,0-1.21.11-2.43.21-4.86.42h-0.26l-7.36-.26h0l-0.64-.13-4.31-2.72h0l-0.26-.13a11.34,11.34,0,0,1-2.55-1,17.94,17.94,0,0,1-2.28-1.35l-0.19-.13-0.15-.17a13.87,13.87,0,0,1-1.37-1.79,8.85,8.85,0,0,1-1-2.11h0l-0.12-.1-0.14-.44-1.8-5.54h0l0-.25,0-.26,0.66-7V477l-0.52-4.67L405.49,470l-0.13-1.17-0.07-.68,0-.59-0.59-9.39V458l0.36-8.61,0.32-8.6,0-1.08v-0.42c0-.11,0,0.14,0,0.11h0v-0.1l0-.54-0.07-2.15-0.14-4.31-0.07-2.15L405,428l-0.21-4.3,0,0.19-1.12-6.86-1.17-6.84,0-.15v-0.14l0-6v0.18l-0.65-6v-0.18l0-4.68v-0.16l0-.14,1.05-5.48,1.39-5.5Z" transform="translate(-401.86 -348)"/><path d="M408.16,435.81c3.34-4.22,7.11-7.8,10.12-12.59,0.25-.39-0.12-0.94-0.38-0.59-3.29,4.42-7,7.88-10.38,12.19-0.46.59,0.19,1.57,0.64,1h0Zm0,0" transform="translate(-401.86 -348)"/><path d="M407.54,443.1c5-6,10.56-11.09,15-17.9,0.36-.56-0.17-1.34-0.57-0.84-4.89,6.28-10.46,11.2-15.41,17.32-0.68.84,0.28,2.23,1,1.41h0Zm0,0" transform="translate(-401.86 -348)"/><path d="M408.21,452.06c6.34-7.79,13.51-14.41,19.23-23.26,0.47-.72-0.22-1.75-0.73-1.09-6.26,8.16-13.38,14.55-19.73,22.51-0.87,1.09.36,2.9,1.22,1.84h0Zm0,0" transform="translate(-401.86 -348)"/><path d="M409.62,459c6.65-9,14.16-16.73,20.15-27,0.49-.84-0.23-2-0.76-1.27-6.56,9.47-14,16.9-20.67,26.15-0.91,1.26.37,3.36,1.28,2.13h0Zm0,0" transform="translate(-401.86 -348)"/><path d="M408.27,472c8-11.14,17-20.61,24.15-33.27,0.59-1-.28-2.49-0.91-1.56-7.86,11.67-16.8,20.81-24.77,32.2-1.09,1.56.45,4.14,1.53,2.63h0Zm0,0" transform="translate(-401.86 -348)"/><path d="M409.6,485.29c8-13,17-24.1,24.15-38.9,0.59-1.21-.27-2.91-0.9-1.82C425,458.21,416,468.9,408.08,482.22c-1.09,1.82.44,4.84,1.52,3.07h0Zm0,0" transform="translate(-401.86 -348)"/><path d="M413.95,491c8-13,17-24.1,24.15-38.9,0.59-1.21-.27-2.91-0.9-1.82-7.86,13.64-16.8,24.33-24.77,37.65-1.09,1.82.44,4.84,1.52,3.07h0Zm0,0" transform="translate(-401.86 -348)"/><path d="M418.15,495.36c7.36-12.08,15.67-22.35,22.31-36.08,0.54-1.12-.25-2.7-0.84-1.69-7.26,12.65-15.52,22.57-22.88,34.93-1,1.69.41,4.49,1.41,2.84h0Zm0,0" transform="translate(-401.86 -348)"/><path d="M427.3,491.1c6.45-9.88,13.73-18.28,19.54-29.52,0.47-.92-0.22-2.21-0.73-1.38-6.36,10.35-13.59,18.46-20,28.57-0.88,1.38.36,3.67,1.23,2.33h0Zm0,0" transform="translate(-401.86 -348)"/><path d="M433,494.78c6.45-9.88,13.73-18.28,19.54-29.52,0.47-.92-0.22-2.21-0.73-1.38-6.36,10.35-13.59,18.46-20,28.57-0.88,1.38.36,3.67,1.23,2.33h0Zm0,0" transform="translate(-401.86 -348)"/><path d="M439.6,497.14c6.14-9.36,13.08-17.31,18.62-28,0.45-.87-0.21-2.09-0.7-1.31-6.06,9.8-13,17.49-19.09,27.06-0.84,1.31.34,3.48,1.18,2.2h0Zm0,0" transform="translate(-401.86 -348)"/><path d="M445.24,497.5c5.94-8.84,12.65-16.35,18-26.39,0.44-.82-0.2-2-0.68-1.24-5.86,9.25-12.52,16.51-18.46,25.54-0.81,1.24.33,3.28,1.14,2.08h0Zm0,0" transform="translate(-401.86 -348)"/><path d="M452.66,497.23c4.82-7.06,10.27-13.05,14.62-21.07,0.35-.65-0.17-1.58-0.55-1-4.76,7.39-10.17,13.18-15,20.4-0.66,1,.27,2.62.92,1.66h0Zm0,0" transform="translate(-401.86 -348)"/><path d="M457.19,497.62c4.15-5.59,8.85-10.34,12.59-16.69,0.31-.52-0.14-1.25-0.47-0.78-4.1,5.85-8.76,10.44-12.92,16.15-0.57.78,0.23,2.08,0.8,1.32h0Zm0,0" transform="translate(-401.86 -348)"/><path d="M462.81,497.34c3.87-5,8.25-9.26,11.74-14.94,0.28-.46-0.13-1.12-0.44-0.7-3.82,5.24-8.17,9.35-12,14.46-0.53.7,0.22,1.86,0.74,1.18h0Zm0,0" transform="translate(-401.86 -348)"/><path d="M468.81,497.68c3.76-4.41,8-8.16,11.4-13.18,0.28-.41-0.13-1-0.43-0.62-3.71,4.62-7.93,8.25-11.69,12.76-0.51.62,0.21,1.64,0.72,1h0Zm0,0" transform="translate(-401.86 -348)"/><path d="M549.87,418.18c-3.52,5.23-7.55,9.7-10.69,15.61-0.26.48,0.16,1.14,0.44,0.7,3.47-5.47,7.47-9.79,11-15.13,0.48-.73-0.26-1.9-0.74-1.19h0Zm0,0" transform="translate(-401.86 -348)"/><path d="M550.43,412.62c-4,4.61-8.64,8.55-12.24,13.76-0.29.42,0.18,1,.5,0.62,4-4.82,8.55-8.63,12.58-13.34,0.55-.64-0.29-1.66-0.83-1h0Zm0,0" transform="translate(-401.86 -348)"/><path d="M549.67,405.92c-5.16,6-11,11.11-15.66,17.88-0.38.55,0.22,1.3,0.63,0.8,5.08-6.26,10.94-11.21,16.1-17.33,0.7-.84-0.37-2.16-1.07-1.35h0Zm0,0" transform="translate(-401.86 -348)"/><path d="M551.11,398.09c-6.31,7.77-13.49,14.42-19.12,23.21-0.46.72,0.28,1.69,0.78,1,6.2-8.13,13.35-14.56,19.65-22.5,0.86-1.09-.45-2.81-1.31-1.76h0Zm0,0" transform="translate(-401.86 -348)"/><path d="M549.19,391c-6.46,8.53-13.82,15.84-19.58,25.49-0.47.79,0.29,1.86,0.8,1.15,6.35-8.93,13.68-16,20.13-24.7,0.88-1.19-.47-3.09-1.34-1.93h0Zm0,0" transform="translate(-401.86 -348)"/><path d="M546.53,382.7c-6,9.42-12.87,17.48-18.23,28.14-0.44.87,0.28,2.06,0.75,1.27,5.91-9.86,12.74-17.64,18.74-27.27,0.82-1.32-.45-3.42-1.26-2.14h0Zm0,0" transform="translate(-401.86 -348)"/><path d="M541.82,379.86c-5.71,9-12.22,16.7-17.31,26.89-0.42.83,0.26,2,.71,1.22,5.61-9.42,12.09-16.86,17.8-26.06,0.78-1.26-.43-3.27-1.2-2h0Zm0,0" transform="translate(-401.86 -348)"/><path d="M537.77,377.25c-5.08,8.26-11,15.42-15.42,24.7-0.36.76,0.34,1.73,0.74,1,5-8.63,10.86-15.55,15.93-24,0.69-1.15-.56-2.87-1.25-1.75h0Zm0,0" transform="translate(-401.86 -348)"/><path d="M532.76,377.11c-5.2,7.55-11.14,14-15.79,22.57-0.38.7,0.24,1.65,0.65,1,5.12-7.9,11-14.15,16.23-21.87,0.71-1.06-.38-2.74-1.09-1.72h0Zm0,0" transform="translate(-401.86 -348)"/><path d="M527.9,374.48c-5.2,7.55-11.14,14-15.79,22.57-0.38.7,0.24,1.65,0.65,1,5.12-7.9,11-14.15,16.23-21.87,0.71-1.06-.38-2.74-1.09-1.72h0Zm0,0" transform="translate(-401.86 -348)"/><path d="M522.28,372.87c-5,7.16-10.62,13.28-15,21.38-0.36.66,0.22,1.56,0.62,1,4.88-7.49,10.51-13.4,15.47-20.72,0.68-1-.36-2.6-1-1.62h0Zm0,0" transform="translate(-401.86 -348)"/><path d="M517.53,372.73c-4.8,6.76-10.28,12.54-14.56,20.19-0.35.62,0.22,1.48,0.6,0.91,4.72-7.07,10.17-12.66,15-19.57,0.65-.94-0.35-2.45-1-1.53h0Zm0,0" transform="translate(-401.86 -348)"/><path d="M512.68,373.46c-5.05,5.89-10.81,10.94-15.33,17.6-0.37.54,0.22,1.28,0.62,0.79,5-6.16,10.7-11,15.75-17.06,0.69-.82-0.36-2.13-1-1.33h0Zm0,0" transform="translate(-401.86 -348)"/><path d="M507.17,373c-4.59,5.12-9.81,9.51-13.91,15.3-0.33.47,0.2,1.11,0.56,0.68,4.52-5.36,9.71-9.6,14.3-14.83,0.63-.72-0.32-1.85-0.95-1.15h0Zm0,0" transform="translate(-401.86 -348)"/><path d="M502.51,373.3c-4.13,4.24-8.82,7.88-12.51,12.67-0.3.39,0.18,0.92,0.5,0.57,4.06-4.44,8.73-8,12.86-12.28,0.56-.59-0.29-1.53-0.85-1h0Zm0,0" transform="translate(-401.86 -348)"/><path d="M495.92,373.2c-4,3.75-8.59,7-12.18,11.21a0.35,0.35,0,0,0,.49.5c4-3.92,8.5-7,12.51-10.87a0.59,0.59,0,0,0-.82-0.84h0Zm0,0" transform="translate(-401.86 -348)"/><path d="M447,378.79h-0.1a1.16,1.16,0,0,1-.25,0,1.24,1.24,0,0,1-.39-0.18,2.14,2.14,0,0,1-.41-0.4,4.72,4.72,0,0,1-.49-0.78,13,13,0,0,1-.65-1.54c-0.37-1-.66-2.06-0.93-3.1-0.13-.53-0.26-1-0.35-1.61a11.24,11.24,0,0,1-.17-1.68,13.7,13.7,0,0,1,.33-3.36,21.28,21.28,0,0,1,2.51-6.11c0.15-.25.24-0.43,0.45-0.74l0.45-.65,0.45-.65,0.55-.67a11.68,11.68,0,0,1,1.16-1.26,13.51,13.51,0,0,1,1.25-1.13,22.66,22.66,0,0,1,5.73-3.41,30.85,30.85,0,0,1,6.31-1.85,56.7,56.7,0,0,1,6.43-.83c2.17-.17,4.23-0.21,6.32-0.36a82.52,82.52,0,0,1,12.86-.25,28.7,28.7,0,0,1,6.47,1.32,11.42,11.42,0,0,1,5.57,4.19,12,12,0,0,1,2,6.55c0,0.16,0,.23,0,0.47s0,0.25,0,.41-0.07.61-.11,0.86l-0.24,1.58q-0.25,1.57-.54,3.13L500,372.94l-0.08.39,0,0.1,0,0.11a0.86,0.86,0,0,1-.19.36,0.84,0.84,0,0,1-.52.27H499l-0.79,0-1.58,0-3.17-.12H493l-0.06-.52c-0.14-1.2-.24-2.4-0.32-3.59q-0.07-.9-0.11-1.79c0-.13,0-0.34,0-0.41l0-.45c0-.24-0.08-0.45-0.14-0.7a7.39,7.39,0,0,0-1.17-2.65,5.43,5.43,0,0,0-1.94-1.68l-0.28-.12-0.07,0h-0.05l0.07,0h0l-0.21-.07-0.42-.14c-0.14,0-.23-0.05-0.34-0.08l-0.32-.08-0.39-.08-0.78-.14c-1.06-.19-2.17-0.3-3.29-0.39a43.8,43.8,0,0,0-6.66,0,14.34,14.34,0,0,0-1.52.19l-0.8.15-0.87.18-3.5.69-3.41.63-0.85.19-0.64.19a11.81,11.81,0,0,0-1.4.53,13.19,13.19,0,0,0-2.64,1.52,12.29,12.29,0,0,0-2.21,2.09,9.37,9.37,0,0,0-2.2,5.64l0-.16c0.17,1.26.33,2.52,0.44,3.8v0l0.06,0.55-0.47.07-9.35,1.47H447Zm-0.08-1.25,9.38-1.21-0.41.63v0c-0.55-1.16-1.06-2.33-1.55-3.5l0-.16a11.19,11.19,0,0,1-.1-4,12.25,12.25,0,0,1,1.41-3.86,13.32,13.32,0,0,1,2.52-3.22,15.09,15.09,0,0,1,3.27-2.45,16.41,16.41,0,0,1,1.87-.91l1-.38,0.87-.26,0.21-.06,0.31-.08,0.43-.11,0.87-.21,1.74-.4,3.49-.77,0.87-.19,0.44-.09,0.52-.09a19.33,19.33,0,0,1,2-.23,36.09,36.09,0,0,1,7.59.34,30.64,30.64,0,0,1,3.75.77c0.31,0.08.63,0.18,0.95,0.29l0.48,0.16,0.53,0.2,0.5,0.21,0.4,0.2,0.2,0.1,0.1,0,0,0,0.06,0,0.13,0.07c0.17,0.1.35,0.2,0.51,0.31a8.34,8.34,0,0,1,2.94,3.42,9.72,9.72,0,0,1,1,4.11c0,0.33,0,.73,0,1.08l-0.06.44c0,0.23,0,.32-0.07.49q-0.14.89-.32,1.77c-0.22,1.18-.46,2.36-0.74,3.53l-0.5-.53h0l3.17-.12,1.58,0,0.79,0h0a0.57,0.57,0,0,0-.33.13,0.55,0.55,0,0,0-.17.26c0,0.1,0,0,0,0v-0.1l0.06-.39,0.83-6.27,0.4-3.13,0.18-1.56,0.07-.71c0-.1,0-0.25,0-0.38l0-.32a9.93,9.93,0,0,0-1.81-5.36,9.27,9.27,0,0,0-4.5-3.16,26.2,26.2,0,0,0-5.94-1.13,80.42,80.42,0,0,0-12.45.41c-2.12.18-4.28,0.27-6.33,0.39a54.06,54.06,0,0,0-6.13.73,25.56,25.56,0,0,0-11.09,4.45,11.45,11.45,0,0,0-1.13,1,10.17,10.17,0,0,0-1,1l-0.49.53-0.47.64-0.47.64c-0.1.12-.27,0.4-0.4,0.6a19.4,19.4,0,0,0-2.53,5.46,11.7,11.7,0,0,0-.06,5.89c0.21,1,.46,2,0.76,3a11.79,11.79,0,0,0,.52,1.4,3.52,3.52,0,0,0,.32.57,1.08,1.08,0,0,0,.14.16s0.06,0,0,0-0.12,0-.06,0h0Z" transform="translate(-401.86 -348)"/><path class="cls-1" d="M408,430.89h12.5l9,0.5,8,1,9.5,0.5s7-.5,8.5-0.5h10l7.49-.5c6.84-.46,12.59.85,19.51-0.5l9.5-1.5,5.5,0.5,9.5,0.5,4.5,1,5,1.5,7-.5,5.5,0.5a38.43,38.43,0,0,1,10-.5l2.5-.5" transform="translate(-401.86 -348)"/><path class="cls-2" d="M408,430.39l7.39-.21,3.7-.09c0.64,0,1.19-.06,1.89,0l1.85,0.06,3.7,0.12,1.85,0.06,0.92,0h0.23l0.3,0,0.46,0,7.35,0.78h-0.09l9.51,0.33H446.9l7-.53,1.74-.13,1.72,0,3.45,0,3.45,0h1.18l0.43,0,1.72-.14,3.44-.27c1.13-.09,2.31-0.19,3.48-0.24s2.39-.06,3.57,0l3.47,0.08a62,62,0,0,0,6.69-.09,30.33,30.33,0,0,0,3.22-.42c1.18-.23,2.28-0.38,3.43-0.58l6.81-1.1,0.25,0,0.25,0,3.74,0.35,1.8,0.17,1.88,0.12q3.75,0.23,7.5.51h0.2l0.11,0,4.47,1.12,0.11,0h0c1.65,0.55,3.3,1.09,4.95,1.67h0l-0.55-.06a48.78,48.78,0,0,0,7.07.54h0.08a29.18,29.18,0,0,0,5.5.5H538.9a34.31,34.31,0,0,1,5.06-.59,39.52,39.52,0,0,1,5.09.08H548.9l2-2.89,1.15,5.77-3-1.89h-0.15a38.63,38.63,0,0,0-4.94-.08,33.48,33.48,0,0,0-4.91.57l-0.09,0H539a29.18,29.18,0,0,0-5.5-.5h0.08a48.77,48.77,0,0,0-6.93,1.54l-0.14,0-0.41-.11h0c-1.69-.42-3.37-0.87-5.05-1.33l0.12,0-4.53-.88,0.3,0q-3.76-.12-7.51-0.28l-1.88-.08-0.54,0-0.47,0-0.94-.08-3.74-.33,0.49,0-6.82,1.06-3.38.52a34.21,34.21,0,0,1-3.62.39,65.5,65.5,0,0,1-7.1-.07l-3.42-.16c-1.12,0-2.26-.06-3.33,0s-2.24.09-3.4,0.16l-3.44.19-1.72.09-0.43,0h-1.4l-3.45,0-3.45,0-1.72,0-1.7.06-6.81.28h-0.17l-9.49-.67h-0.09L430,432.53l-0.46-.07-0.11,0h0l-0.23,0-0.92-.07-1.84-.15-3.69-.29-1.84-.15c-0.52-.06-1.21,0-1.8-0.07l-3.7-.09-7.39-.21v-1Z" transform="translate(-401.86 -348)"/><path class="cls-2" d="M447.58,443.16c-0.7-.2-1.4-0.39-2.1-0.61s-1.39-.45-2.07-0.72l0.74,0-3.63.54-0.26,0h-3.94l-0.32,0a2.66,2.66,0,0,1-.33-0.07,3,3,0,0,1-1.13-.61,3,3,0,0,1-1-2.27v-0.11l0-.1,1-4.75h0v0.41a11.27,11.27,0,0,1-1.2-2.23,16.85,16.85,0,0,1-.76-2.32l0-.13v-0.28a20.54,20.54,0,0,1,.14-3.32v-0.28h0l0-.24a3.15,3.15,0,0,1,.25-0.82,3.43,3.43,0,0,1,.9-1.2,3.17,3.17,0,0,1,1.26-.65,2.67,2.67,0,0,1,1.34,0h0l-0.27,0,3.28-1.73h0l0.15-.08H440q2,0.06,4,.15h0.27l0.12,0,4,1.18L448,423a3.39,3.39,0,0,1,2.36,1.07,3.3,3.3,0,0,1,.89,2.36v0.22l0,0.1c-0.4,1.23-.81,2.45-1.24,3.67h0v-0.49a16.74,16.74,0,0,1,1.79,4.06l0,0.07,0,0.34c0.1,1.36.11,2.71,0.11,4.07l0,1.11v0.14l0,0.31A3.85,3.85,0,0,1,448,443.2h-0.27Zm0.45-3.6a0.16,0.16,0,0,0,.07-0.11,0.2,0.2,0,0,0,0,0s0,0,0,0a0.18,0.18,0,0,0,0,.06v-0.11l0-.92c0-1.36,0-2.71.11-4.07l0,0.42a16.74,16.74,0,0,1-.21-4.44v-0.49h0c0.24-1.27.49-2.54,0.76-3.8l0,0.32a0.71,0.71,0,0,0-.29-0.47,0.6,0.6,0,0,0-.47-0.11h-0.07l-0.28-.06-4-.82,0.39,0q-2,.1-4,0.15l0.48-.07h0l-3.7.27-0.25,0,0,0h0a0.9,0.9,0,0,0-.34.69,0.39,0.39,0,0,0,.07.22s0,0.06.06,0,0,0.12,0,.17h0c0-.18,0-0.05,0-0.09h0v0.18a20.54,20.54,0,0,1,.14,3.32l0-.41a16.85,16.85,0,0,1,.24,2.43,11.27,11.27,0,0,1-.2,2.52v0.41h0l-1,4.75,0-.21a1,1,0,0,0,.35.76,1,1,0,0,0,.38.2l0.09,0a0.32,0.32,0,0,0,.11,0h3.82l-0.27,0,3.37-1.46,0.15-.07,0.59,0c0.73,0.06,1.46.17,2.18,0.28S447.44,439.44,448,439.55Z" transform="translate(-401.86 -348)"/><path class="cls-2" d="M511.83,443.16c-0.7-.2-1.4-0.39-2.1-0.61s-1.39-.45-2.07-0.72l0.74,0-3.63.54-0.26,0h-3.94l-0.32,0a2.66,2.66,0,0,1-.33-0.07,3,3,0,0,1-1.13-.61,3,3,0,0,1-1-2.27v-0.11l0-.1,1-4.75h0v0.41a11.27,11.27,0,0,1-1.2-2.23,16.85,16.85,0,0,1-.76-2.32l0-.13v-0.28a20.54,20.54,0,0,1,.14-3.32v-0.28h0l0-.24a3.15,3.15,0,0,1,.25-0.82,3.43,3.43,0,0,1,.9-1.2,3.17,3.17,0,0,1,1.26-.65,2.67,2.67,0,0,1,1.34,0h0l-0.27,0,3.28-1.73h0l0.15-.08h0.34q2,0.06,4,.15h0.27l0.12,0,4,1.18-0.35,0a3.39,3.39,0,0,1,2.36,1.07,3.3,3.3,0,0,1,.89,2.36v0.22l0,0.1c-0.4,1.23-.81,2.45-1.24,3.67h0v-0.49A16.73,16.73,0,0,1,516,434l0,0.07,0,0.34c0.1,1.36.11,2.71,0.11,4.07l0,1.11v0.14l0,0.31a3.85,3.85,0,0,1-3.84,3.18H512Zm0.45-3.6a0.16,0.16,0,0,0,.07-0.11,0.2,0.2,0,0,0,0,0s0,0,0,0a0.18,0.18,0,0,0,0,.06v-0.11l0-.92c0-1.36,0-2.71.11-4.07l0,0.42a16.73,16.73,0,0,1-.21-4.44v-0.49h0c0.24-1.27.49-2.54,0.76-3.8l0,0.32a0.71,0.71,0,0,0-.29-0.47,0.6,0.6,0,0,0-.47-0.11h-0.07l-0.28-.06-4-.82,0.39,0q-2,.1-4,0.15l0.48-.07h0l-3.7.27-0.25,0,0,0h0a0.9,0.9,0,0,0-.34.69,0.39,0.39,0,0,0,.07.22s0,0.06.06,0,0,0.12,0,.17h0c0-.18,0-0.05,0-0.09h0v0.18a20.54,20.54,0,0,1,.14,3.32l0-.41a16.85,16.85,0,0,1,.24,2.43,11.27,11.27,0,0,1-.2,2.52v0.41h0l-1,4.75,0-.21a1,1,0,0,0,.35.76,1,1,0,0,0,.38.2l0.09,0a0.32,0.32,0,0,0,.11,0h3.82l-0.27,0,3.37-1.46,0.15-.07,0.59,0c0.73,0.06,1.46.17,2.18,0.28S511.69,439.44,512.28,439.55Z" transform="translate(-401.86 -348)"/></svg>