<svg id="Layer_1" data-name="Layer 1" xmlns="http://www.w3.org/2000/svg" viewBox="0 0 512.84 512.84"><defs><style>.cls-1{fill:none;stroke:#000;stroke-miterlimit:10;stroke-width:4px;}</style></defs><title>icon-linkedin</title><circle cx="256.5" cy="256.5" r="252.5"/><circle class="cls-1" cx="256.42" cy="256.42" r="254.42"/><path d="M186,226h32.05V329.06H186V226Zm16-51.25a18.58,18.58,0,1,1-18.57,18.57A18.58,18.58,0,0,1,202,174.74" transform="translate(-4 1)"/><path d="M238.15,226h30.73v14.08h0.44c4.28-8.1,14.73-16.65,30.32-16.65,32.42,0,38.41,21.34,38.41,49.11v56.54H306V278.94c0-12-.23-27.34-16.65-27.34-16.67,0-19.21,13-19.21,26.47v51h-32V226Z" transform="translate(-4 1)"/></svg>