<?xml version="1.0" encoding="utf-8"?>
<!-- Generator: Adobe Illustrator 19.2.1, SVG Export Plug-In . SVG Version: 6.00 Build 0)  -->
<svg version="1.1" id="Layer_1" xmlns="http://www.w3.org/2000/svg" xmlns:xlink="http://www.w3.org/1999/xlink" x="0px" y="0px"
	 viewBox="0 0 100 125" style="enable-background:new 0 0 100 125;" xml:space="preserve">
<g>
	<path d="M77.5,51.5H22.1c-0.6,0-1.1-0.5-1.1-1.1s0.5-1.1,1.1-1.1h55.4c0.6,0,1.1,0.5,1.1,1.1S78.1,51.5,77.5,51.5z"/>
</g>
<g>
	<path d="M78.6,50.4c0-15.9-12.9-28.8-28.8-28.8c0,0,0,0,0,0s0,0,0,0C33.9,21.5,21,34.5,21,50.4c0,15.9,12.9,28.8,28.8,28.8
		C65.7,79.2,78.6,66.2,78.6,50.4z M69.1,68.6c-1.4-1.3-2.9-2.4-4.5-3.3c3.9-9.7,3.9-20.6-0.1-30.2c1.5-0.9,3-2,4.4-3.2
		c4.6,4.8,7.5,11.3,7.5,18.5C76.4,57.4,73.6,63.9,69.1,68.6z M37.9,66.3c3.4-1.7,7.1-2.6,10.8-2.8v13.4c-1.2-0.1-2.5-0.2-3.7-0.4
		C42,73.4,39.6,70,37.9,66.3z M41,75.4c-3.3-1.2-6.3-2.9-8.9-5.2c1.2-1.1,2.5-2,3.8-2.8C37.3,70.2,39,72.9,41,75.4z M45,24.2
		c1.2-0.2,2.4-0.4,3.7-0.4v13c-3.7-0.2-7.3-1.1-10.6-2.7C39.8,30.6,42.1,27.2,45,24.2z M36.1,33c-1.3-0.8-2.5-1.7-3.7-2.7
		c2.5-2.2,5.5-3.9,8.7-5.1C39,27.7,37.4,30.3,36.1,33z M61.6,34.1c-3.3,1.6-7,2.6-10.6,2.7v-13c1.2,0.1,2.5,0.2,3.7,0.4
		C57.5,27.2,59.8,30.6,61.6,34.1z M58.6,25.3c3.2,1.1,6.2,2.9,8.7,5.1c-1.2,1-2.4,1.9-3.7,2.7C62.2,30.3,60.5,27.7,58.6,25.3z
		 M50.9,39.1c4-0.2,7.9-1.1,11.6-2.9c3.7,9,3.7,19.1,0.1,28.1c-3.7-1.8-7.7-2.8-11.7-3L50.9,39.1z M48.7,39.1v22.2
		c-4,0.2-8,1.1-11.7,3c-3.6-9-3.6-19.1,0.1-28.1C40.8,38,44.7,38.9,48.7,39.1z M50.9,63.5c3.7,0.2,7.4,1.1,10.8,2.8
		c-1.7,3.7-4.1,7.1-7.1,10.2c-1.2,0.2-2.4,0.4-3.7,0.4L50.9,63.5L50.9,63.5z M63.7,67.4c1.3,0.8,2.6,1.7,3.8,2.8
		c-2.6,2.3-5.6,4.1-8.9,5.2C60.6,72.9,62.3,70.2,63.7,67.4z M30.7,31.9c1.4,1.2,2.9,2.3,4.4,3.2c-4,9.6-4.1,20.5-0.1,30.2
		c-1.6,0.9-3.1,2-4.5,3.3c-4.5-4.8-7.3-11.2-7.3-18.3C23.2,43.2,26.1,36.7,30.7,31.9z"/>
</g>
</svg>
