<?xml version="1.0" encoding="utf-8"?>
<!-- Generator: Adobe Illustrator 19.2.1, SVG Export Plug-In . SVG Version: 6.00 Build 0)  -->
<svg version="1.1" id="Layer_1" xmlns="http://www.w3.org/2000/svg" xmlns:xlink="http://www.w3.org/1999/xlink" x="0px" y="0px"
	 viewBox="0 0 60 60" style="enable-background:new 0 0 60 60;" xml:space="preserve">
<g>
	<g>
		<g>
			<path d="M30,3c14.9,0,27,12.1,27,27c0,14.9-12.1,27-27,27S3,44.9,3,30C3,15.1,15.1,3,30,3 M30,0C13.5,0,0,13.5,0,30
				c0,16.5,13.5,30,30,30s30-13.5,30-30C60,13.5,46.5,0,30,0L30,0z"/>
		</g>
	</g>
</g>
<circle cx="30" cy="30" r="3.2"/>
<circle cx="30" cy="20.4" r="3.2"/>
<circle cx="30" cy="39.6" r="3.2"/>
<circle cx="39.6" cy="30" r="3.2"/>
<circle cx="39.6" cy="20.4" r="3.2"/>
<circle cx="39.6" cy="39.6" r="3.2"/>
<circle cx="20.4" cy="30" r="3.2"/>
<circle cx="20.4" cy="20.4" r="3.2"/>
<circle cx="20.4" cy="39.6" r="3.2"/>
</svg>
