<svg id="Layer_1" data-name="Layer 1" xmlns="http://www.w3.org/2000/svg" viewBox="0 0 59.78 48.21"><title>icon-distributor</title><path d="M40.27,39A1.35,1.35,0,0,1,39,38.2L23.43,1.88A1.35,1.35,0,1,1,25.91.82L41,35.9,57.9,28.7A1.35,1.35,0,1,1,59,31.18L40.8,38.91A1.35,1.35,0,0,1,40.27,39ZM50.56,12.71A1.35,1.35,0,0,0,48.78,12l-12,5.09a1.35,1.35,0,0,0-.71,1.77L41.67,32a1.35,1.35,0,0,0,1.77.71l12-5.09a1.35,1.35,0,0,0,.71-1.77ZM23.62,41.46a6.75,6.75,0,1,0,6.75-6.75A6.75,6.75,0,0,0,23.62,41.46ZM21.83,43H12.31A7.1,7.1,0,0,0,0,38.19V27.26a1.35,1.35,0,0,1,1.35-1.35H3.51V10.8A1.69,1.69,0,0,1,5.2,9.11H22.88a1.69,1.69,0,0,1,1.55,1l8.74,20.4a1.67,1.67,0,0,1,.13.78h0v2a8.67,8.67,0,0,0-11.61,8.17A8.52,8.52,0,0,0,21.83,43ZM18.91,30H29.26L21.76,12.48H6.88V25.92H17ZM0,43a5.17,5.17,0,1,0,5.17-5.17A5.17,5.17,0,0,0,0,43Z" transform="translate(0 0)"/></svg>