<?xml version="1.0" encoding="utf-8"?>
<!-- Generator: Adobe Illustrator 19.2.1, SVG Export Plug-In . SVG Version: 6.00 Build 0)  -->
<svg version="1.1" id="Layer_1" xmlns="http://www.w3.org/2000/svg" xmlns:xlink="http://www.w3.org/1999/xlink" x="0px" y="0px"
	 viewBox="0 0 1022 719" style="enable-background:new 0 0 1022 719;" xml:space="preserve">
<style type="text/css">
	.st0{fill:#E0E0E0;}
	.st1{fill:#FFFFFF;}
	.st2{fill:none;}
</style>
<polyline class="st0" points="647.3,366.9 405.2,205.3 681.2,349.3 647.3,366.9 "/>
<path class="st1" d="M1011.2,155.6c0,0-10-70.4-40.6-101.4c-38.8-40.7-82.4-40.9-102.3-43.3C725.4,0.6,510.9,0.6,510.9,0.6h-0.4
	c0,0-214.4,0-357.4,10.3c-20,2.4-63.5,2.6-102.3,43.3c-30.6,31-40.6,101.4-40.6,101.4S0,238.2,0,320.9v77.5
	C0,481,10.2,563.7,10.2,563.7s10,70.4,40.6,101.4c38.9,40.7,89.9,39.4,112.6,43.7c81.7,7.8,347.3,10.3,347.3,10.3
	s214.6-0.3,357.6-10.7c20-2.4,63.5-2.6,102.3-43.3c30.6-31,40.6-101.4,40.6-101.4s10.2-82.7,10.2-165.3v-77.5
	C1021.5,238.2,1011.2,155.6,1011.2,155.6 M405.3,492.3l0-287l276,144L405.3,492.3z"/>
<rect x="0.1" y="0.6" class="st2" width="1021.4" height="718.4"/>
</svg>
