<svg id="Layer_1" data-name="Layer 1" xmlns="http://www.w3.org/2000/svg" xmlns:xlink="http://www.w3.org/1999/xlink" viewBox="0 0 155.77 142.25"><defs><style>.cls-1{fill:none;}.cls-2{clip-path:url(#clip-path);}</style><clipPath id="clip-path" transform="translate(-219 -349.89)"><rect class="cls-1" x="219" y="349.89" width="156" height="143"/></clipPath></defs><title>icon-calendar</title><g class="cls-2"><path d="M372.43,433.86c-1.36-22.68,2.35-45.06-.7-67.75a1.55,1.55,0,0,0-1.51-1.52c-10.66-.16-21.32-0.93-32-0.75a1.08,1.08,0,0,0,.89-0.8c1.75-7.46-6.45-11.9-12.56-12.88-7.44-1.19-17,1.41-21.43,7.9a14.38,14.38,0,0,0-2.23,6c-3.39-2.25-9.51-1.27-13.07-1s-7.25.68-10.87,1.12c0.82-5.81-3.76-10.22-9.5-11-7.65-1.09-16.06,2.76-20.89,8.6a13.27,13.27,0,0,0-2.87,6.36c-2.93-1-7.34-.49-10.17-0.64-5-.26-10.08-0.42-15,0.75a0.87,0.87,0,0,0-1.13.34,1.13,1.13,0,0,0-.22,1.62c-1.5,40.11,5.63,79.81.6,119.93a1.51,1.51,0,0,0,1.5,1.5c26.3,0.82,52.45-1.07,78.68-2.82,23.23-1.55,46.62,1.42,69.85,1.69-0.14,1.75,2.55,2.44,2.94.59,4-19,.76-38-0.38-57.19h0Zm-8.34-66.32c4.09,0.14,5.92,5.38,6.61,12.15-4.64-3.42-8.37-7.72-12.62-11.62a0.44,0.44,0,0,0-.62.63c2.42,2.69,4.87,5.36,7.29,8.06,1.62,1.81,3.72,4.73,6.17,5.5a143.56,143.56,0,0,1-.43,18.5,10.52,10.52,0,0,0-5.36-1.69c-2.1-5.75-8.07-11.38-11.87-15.83-4.44-5.2-9-10.62-14.53-14.62a0.4,0.4,0,0,0-.48.62c9.85,8,16.07,20.1,24.2,29.72-1.74,0-3.45.12-5,.16a0.78,0.78,0,0,0,.44-1.15c-3.68-5.76-9.09-11-13.34-16.39-3.73-4.75-8.05-11.57-13.77-14.11a0.41,0.41,0,0,0-.49.64,158.51,158.51,0,0,1,13.82,16.05c3.58,4.79,7.43,11.85,12.65,14.94a0.87,0.87,0,0,0,.13,0h-0.71c-1.36,0-2.71,0-4.07,0a1,1,0,0,0,.23-0.33,1.41,1.41,0,0,0-.1-1.19,0.78,0.78,0,0,0-1-.44,5,5,0,0,0-.7-0.82c-0.71-.78-1.36-1.6-2-2.42-1.59-2-3.2-3.92-4.85-5.85-5.58-6.54-10.81-13.36-16.94-19.41,0.4-.69.87-1.32,1.29-2.06,12.05,0,24.05.5,36.1,0.92h0Zm-18.65,30.14a140.86,140.86,0,0,1-10.64-10.8c-3.1-3.68-6-7.53-9.33-11a26.4,26.4,0,0,1,.43-5.14,5.56,5.56,0,0,1,.19-0.63c6.2,7,11.44,14.69,17.68,21.61,1.46,1.62,3.73,6.17,6.23,7.45h-4.79a0.9,0.9,0,0,0,.22-1.47h0Zm-37.09-38.76c3.88-4.76,10.77-6.17,16.58-5.9,6.81,0.32,10.19,3.84,11.83,10a1.15,1.15,0,0,0,.94.81q-5.06.1-10.11,0.57a0.91,0.91,0,0,0-.39-0.09c-4.07.27-4.56,6.86-4.73,9.86s-0.63,8.89,2,11.11a0.73,0.73,0,0,0,.19.09c-13.38,6.08-24.39-16.51-16.27-26.46h0Zm-5.84,7.86a1.71,1.71,0,0,0,.19,0c-0.16,13.21,11.81,29.52,24.11,19.92,1-.75-0.23-2.18-1.25-1.68a0.68,0.68,0,0,0,.08-0.2,34.78,34.78,0,0,0-.08-6.21c2.61,3.25,5.17,6.52,7.75,9.79,3,3.84,6.43,8.37,10.8,10.78-2.6,0-5.2,0-7.8,0a1.12,1.12,0,0,0-.12-1.67c-3.79-2.83-6.49-6.33-9.75-9.7a0.56,0.56,0,0,0-.87.67c2.69,3.82,5.69,7.91,9.48,10.7l-6.08,0a0.61,0.61,0,0,0-.1-0.25c0.5,0.5,0-.07-0.14-0.3a7.45,7.45,0,0,0-1.07-1.3c-1.11-1.14-2.28-2.24-3.42-3.35l-3.43-3.34a3.45,3.45,0,0,0-1.14-.89,1.36,1.36,0,0,0-.35,0,0.63,0.63,0,0,0-.35-0.21,0.18,0.18,0,0,0-.17.13,2.23,2.23,0,0,0,.33,1.41,29.06,29.06,0,0,0,3,3.52c1.2,1.29,2.38,2.62,3.63,3.86,0.25,0.25.51,0.51,0.77,0.76-2.09,0-4.19,0-6.28,0,0.12,0,.23,0,0.35,0a0.9,0.9,0,0,0,.21-1.63c-6-2.91-10.19-10.73-14-15.84S299.4,370.49,294.67,366a41.86,41.86,0,0,1,7.85.78h0Zm-18.2-.16c6,5.59,10.66,12.2,15.38,18.84,3.12,4.39,6.49,10.29,11.21,13.11a0.88,0.88,0,0,0,1.19-1.2c-4.07-5.48-8.81-10.55-12.92-16.06-3.95-5.29-8.07-10.57-13.1-14.87q3.34-.33,6.7-0.41c5.82,6.68,10.31,14.64,15.56,21.75,2.12,2.87,6.68,10.89,11.14,11.46-2.71,0-5.42,0-8.13-.12-2-.06-3.95,0-5.92-0.07a1.09,1.09,0,0,0-.06-1.48q-7.6-8-14.94-16.19c-3.76-4.22-7.79-10.81-12.65-14l6.54-.76h0Zm3.26,14.92c5.11,6,10.35,12,16,17.48-2.48,0-5-.09-7.45-0.09a2.73,2.73,0,0,0,.27-1.12c0.07-1.07-1.45-1.16-1.77-.24,0.71-2.05-9.42-13-10.72-14.76A79.32,79.32,0,0,0,270.09,368c2.13-.08,4.26-0.27,6.38-0.5,2,5.16,7.59,9.91,11.1,14h0Zm-24.71,5.91c1.84,2.7,3.92,5.23,6,7.75,0.67,0.81,1.81,2.51,3.07,3.86l-4,.05a6.49,6.49,0,0,0-1.54-2.11c-1.16-1.3-2.3-2.61-3.46-3.91a59.55,59.55,0,0,0-5.2-5.28,7,7,0,0,0,4.77-1.13h0c0.13,0.07.2,0.42,0.32,0.16a0.6,0.6,0,0,0,0,.6h0Zm7.46,6.29a71.42,71.42,0,0,0-6.52-7,0.61,0.61,0,0,0-.58-0.15,1.8,1.8,0,0,0-.27-0.19,7.89,7.89,0,0,0,2.12-2.7,1.13,1.13,0,0,0,.46-1.67,6.79,6.79,0,0,1-1.1-3.82c2.85,4.06,6,7.91,9,11.88,1.75,2.34,3.45,4.69,5.25,7a14.64,14.64,0,0,0,1.6,1.9l-4.82,0a14.31,14.31,0,0,0-1.38-1.34c-1.31-1.24-2.52-2.6-3.73-3.93h0Zm-5.66-17.57a17.6,17.6,0,0,1,.7-2.31,9.87,9.87,0,0,1,.75-1.54c3,4.7,6.63,9.17,9.94,13.66s6.61,9.46,10.93,13h-4.27a0.88,0.88,0,0,0-.21-0.61c-6.16-7.18-11.74-14.9-17.84-22.17h0Zm13,8.54c-3.42-4.37-6.66-9.68-10.87-13.43a21.92,21.92,0,0,1,2.23-2.41c7.94,7.31,14.06,16.48,20.36,25.18a24.92,24.92,0,0,0,4.63,4.88h-4.32a1.06,1.06,0,0,0-.27-0.73c-4-4.43-8-8.74-11.75-13.48h0ZM253,361.45c3.7-3.5,9.09-5.28,14.1-5.45,6.22-.22,8.41,3.2,8.89,8.48-2.86.33-5.72,0.63-8.6,0.78-1-.21-1.72,1.05-1.48,2a18.78,18.78,0,0,0-3.12,5.15c-1.35,3.26-2.28,7.91.38,10.76-5,3.59-9.32.73-12.5-4.56-3.58-6-2.65-12.41,2.32-17.13h0Zm-17.44,9c2.75,0.13,7,1.23,10,.49a21.8,21.8,0,0,0,4.8,12.43,11.69,11.69,0,0,0,6.32,4.22,0.42,0.42,0,0,0,.09.3c1.68,2.09,3.19,4.44,4.86,6.58,1,1.26,2,2.52,3,3.75l0.74,0.92-3.91,0c-3.64,0-7.23-.07-10.8-0.19a0.77,0.77,0,0,0,.16-1.18,136.42,136.42,0,0,1-11.64-14.55c-3-4.57-6.06-9.21-10.05-13h0c2.16,0,4.33.09,6.48,0.2h0Zm-14.3.18a63,63,0,0,1,7.13-.39,0.53,0.53,0,0,0-.06.78c4.28,4.94,7.53,10.5,11,16,2.66,4.23,5.8,9.5,10.34,11.93-2.34-.07-4.67-0.16-7-0.18a1.71,1.71,0,0,0,.46-0.74,0.88,0.88,0,0,0-1.46-.86c0.43-.53-5.9-8.73-6.93-10.12-3.82-5.13-7.56-10.41-11.45-15.45-0.13-.16-0.49-0.21-0.53.07-0.42,3,2.6,6.21,4.22,8.42,2.55,3.49,5.14,6.93,7.53,10.53,0.44,0.66,4.11,6.75,6.6,8.14-2,0-3.95,0-5.93.17a0.68,0.68,0,0,0-.09-0.45,149.57,149.57,0,0,0-12.81-16.94,0.47,0.47,0,0,0-.41-0.15q-0.33-5.4-.64-10.79h0ZM222,383.13c1.95,3.14,4.1,6.19,6.18,9.25,1.55,2.29,3,4.85,5.1,6.71-1.25.11-2.5,0.26-3.75,0.45a0.81,0.81,0,0,0-.06-0.46c-2-3.67-4.69-6.8-6.41-10.65a0.54,0.54,0,0,0-.75-0.28q-0.15-2.51-.3-5h0Zm0.48,8a34.59,34.59,0,0,0,2.68,5,20.81,20.81,0,0,0,2.64,3.68c-1.48.27-3,.59-4.46,1a1,1,0,0,0-.27.14c-0.19-3.29-.39-6.57-0.59-9.86h0Zm147.91,96.39a1.22,1.22,0,0,0-.17,0c-17.92-.19-35.8-1.57-53.72-1.94-23-.47-46,2.45-69,3.22-11.13.38-24.73,4-23.28-11.22,1.21-12.72.93-25.59,0.57-38.34-0.35-12.17-1-24.35-1.66-36.53a1,1,0,0,0,.71.12c12.59-2.35,24.87-1,37.54-.55,14.44,0.51,28.94-.88,43.41-0.42,12.27,0.39,24.46.64,36.74,0.48,6.51-.09,21.2-2.57,27.4.67a1.35,1.35,0,0,0,1.34-.08c-0.25,3.05-.48,5.49-0.53,6.8-1.07,25.62,5.14,52.51.61,77.81h0Zm0,0" transform="translate(-219 -349.89)"/></g><path d="M274.64,433A127.09,127.09,0,0,0,290,411.59a1.51,1.51,0,0,0-1.3-2.26c-9.07.25-18,1.75-27.1,2.1a1.11,1.11,0,0,0-.95.54l0,0.05a0.89,0.89,0,0,0,0,.2,0.83,0.83,0,0,0,0,.3,0.85,0.85,0,0,0,0,.3,0.89,0.89,0,0,0,0,.2l0,0a1.1,1.1,0,0,0,.95.55c8.16,0.31,16.21-.78,24.35-1.16a133.43,133.43,0,0,1-15.3,20.5,1.54,1.54,0,0,0,1.07,2.59c9.93,0.92,21.56,6.79,22.66,17.9,1.68,16.94-27,19.48-27.43,1a1.46,1.46,0,0,0-2.91,0c-0.45,16.87,18.43,20.16,28.8,9.93,14-13.8-4.53-28.41-18.21-31.36h0Zm0,0" transform="translate(-219 -349.89)"/><path d="M318.66,447.14c0.11-11.82,1.23-25.07-1.33-36.7-0.31-1.41-2-1.29-2.74-.36-4.1,5.33-9.07,9.79-12.68,15.48-0.79,1.24,1.08,2.23,1.92,1.12,3.31-4.41,7.27-8.08,11-12.09q-0.49-4.83,0-1.1c0.16,1.46.24,2.92,0.32,4.39,0.39,6.51.45,13,.51,19.56q0.09,10.34-.2,20.67c-0.06,2,.71,8.81-0.43,10.5A1,1,0,0,0,316.4,470c4.43-2.43,2.21-19,2.25-22.89h0Zm0,0" transform="translate(-219 -349.89)"/><path d="M258.41,397c-7.13-8.48-13.19-18.08-21.28-25.7a0.7,0.7,0,0,0-1,1c7.46,8.35,13.32,17.9,20.6,26.37,1,1.16,2.63-.51,1.66-1.66h0Zm0,0" transform="translate(-219 -349.89)"/><path d="M370.12,395.52c-7.39-9.7-15.76-18.94-24-27.95-0.29-.31-0.71.09-0.56,0.43,2.11,4.6,5.82,8.49,9,12.33,4.54,5.42,9.16,10.76,13.45,16.39,0.92,1.21,3,0,2.06-1.21h0Zm0,0" transform="translate(-219 -349.89)"/><path d="M370.89,388.36c-0.74-1.47-2.33-2.55-3.46-3.74-2.06-2.18-3.94-4.54-5.83-6.86-2.64-3.23-5.91-8.8-9.94-10.41a0.47,0.47,0,0,0-.53.69c2.85,4.17,6.56,8,9.67,12,2.08,2.69,5.63,9.11,9.42,9.47a0.79,0.79,0,0,0,.68-1.18h0Zm0,0" transform="translate(-219 -349.89)"/></svg>