<svg id="Layer_1" data-name="Layer 1" xmlns="http://www.w3.org/2000/svg" viewBox="0 0 49.56 67.89"><title>icon-map-marker-distributors</title><path fill="yellow" d="M23.89,66.28c-1-1-23.39-23.81-23.39-41.49a24.29,24.29,0,0,1,48.57,0c0,17.68-22.41,40.52-23.41,41.49l-0.9.9Zm0.9-55.82a13,13,0,1,0,13,13h0A13,13,0,0,0,24.79,10.46Z"/><path fill="yellow" d="M24.79,1A23.81,23.81,0,0,1,48.58,24.79c0,17.48-22.29,40.18-23.24,41.14l-0.54.55-0.54-.55C23.3,65,1,42.27,1,24.79A23.81,23.81,0,0,1,24.79,1m0,36a13.5,13.5,0,1,0-13.5-13.5h0A13.52,13.52,0,0,0,24.79,37m0-37A24.81,24.81,0,0,0,0,24.79C0,42.73,22.57,65.67,23.53,66.63l1.25,1.26L26,66.63c1-1,23.53-23.9,23.53-41.84A24.81,24.81,0,0,0,24.79,0h0Zm0,36a12.5,12.5,0,1,1,12.5-12.5h0A12.52,12.52,0,0,1,24.79,36h0Z"/><circle fill="yellow" cx="24.9" cy="23.46" r="13.75"/><path d="M30,33.56a0.63,0.63,0,0,1-.59-0.37l-7.29-17a0.63,0.63,0,1,1,1.14-.55l0,0.05,7.07,16.42,7.91-3.37a0.64,0.64,0,0,1,.52,1.16l-8.52,3.62A0.63,0.63,0,0,1,30,33.56Zm4.82-12.31A0.63,0.63,0,0,0,34,20.92h0l-5.62,2.38a0.63,0.63,0,0,0-.33.83l2.62,6.15a0.63,0.63,0,0,0,.83.33l5.62-2.38a0.63,0.63,0,0,0,.33-0.83ZM22.23,34.72a3.16,3.16,0,1,0,3.16-3.16h0A3.16,3.16,0,0,0,22.23,34.72Zm-0.84.72H16.93a3.32,3.32,0,0,0-5.76-2.25V28.07a0.63,0.63,0,0,1,.63-0.63h1V20.36a0.79,0.79,0,0,1,.79-0.79h8.28a0.79,0.79,0,0,1,.73.47l4.09,9.55a0.78,0.78,0,0,1,.06.37h0v0.94a4.06,4.06,0,0,0-5.44,3.83A4,4,0,0,0,21.39,35.44ZM20,29.35h4.85l-3.51-8.2h-7v6.29h4.74Zm-8.85,6.09A2.42,2.42,0,1,0,13.59,33h0A2.42,2.42,0,0,0,11.17,35.44Z"/></svg>
