<?xml version="1.0" encoding="utf-8"?>
<!-- Generator: Adobe Illustrator 19.2.1, SVG Export Plug-In . SVG Version: 6.00 Build 0)  -->
<svg version="1.1" id="Layer_1" xmlns="http://www.w3.org/2000/svg" xmlns:xlink="http://www.w3.org/1999/xlink" x="0px" y="0px"
	 viewBox="0 0 100 125" style="enable-background:new 0 0 100 125;" xml:space="preserve">
<style type="text/css">
	.st0{fill:none;stroke:#aac426;stroke-width:3;stroke-miterlimit:10;}
	.st1{fill:none;stroke:#aac426;stroke-width:3;stroke-linejoin:round;stroke-miterlimit:10;}
</style>
<path class="st0" d="M38.7,27.1H15.4c-2.9,0-5.3,2.4-5.3,5.3v13.2v29c0,2.9,2.4,5.3,5.3,5.3h69.3c2.9,0,5.3-2.4,5.3-5.3v-29V32.4
	c0.1-2.9-2.3-5.3-5.2-5.3H61.5H38.7z"/>
<g>
	<g>
		<path fill="#aac426" d="M31.4,54.3h-3.9c-1.1,0-2-0.9-2-2v-4.6c0-1.1,0.9-2,2-2h3.9c1.1,0,2,0.9,2,2v4.6C33.4,53.4,32.5,54.3,31.4,54.3z"/>
	</g>
	<g>
		<path fill="#aac426" d="M72.4,54.3h-3.9c-1.1,0-2-0.9-2-2v-4.6c0-1.1,0.9-2,2-2h3.9c1.1,0,2,0.9,2,2v4.6C74.4,53.4,73.5,54.3,72.4,54.3z"/>
	</g>
</g>
<path class="st0" d="M38.9,26.8v-4c0-1.1,0.9-2,2-2h18.2c1.1,0,2,0.9,2,2v4"/>
<path class="st1" d="M10.1,44L10.1,44c0,4.7,3.5,5.6,8.3,5.6h31.7h31.7c4.8,0,8.3-0.9,8.3-5.6v0"/>
</svg>
