<?xml version="1.0" encoding="utf-8"?>
<!DOCTYPE svg PUBLIC "-//W3C//DTD SVG 1.1//EN" "http://www.w3.org/Graphics/SVG/1.1/DTD/svg11.dtd">
<svg version="1.1" xmlns="http://www.w3.org/2000/svg" xmlns:xlink="http://www.w3.org/1999/xlink" x="0px" y="0px" width="1024px" height="1024px" viewBox="0 0 1024 1024" enable-background="new 0 0 1024 1024" xml:space="preserve">
  <path fill="#fff" stroke-width="14" d="M628.509 517.026l295.154 295.154c33.658 33.658 33.658 85.439 0 119.097-15.534 15.534-38.836 25.89-59.549 25.89s-44.015-10.356-59.549-25.89l-295.154-295.154-295.154 295.154c-15.534 15.534-38.836 25.89-59.549 25.89s-44.015-10.356-59.549-25.89c-33.658-33.658-33.658-85.439 0-119.097l295.154-295.154-295.154-295.154c-33.658-33.658-33.658-85.439 0-119.097s85.439-33.658 119.097 0l295.154 295.154 295.154-295.154c33.658-33.658 85.439-33.658 119.097 0s33.658 85.439 0 119.097l-295.154 295.154z" />
</svg>
