<?xml version="1.0" encoding="utf-8"?>
<!-- Generator: Adobe Illustrator 19.2.1, SVG Export Plug-In . SVG Version: 6.00 Build 0)  -->
<svg version="1.1" id="Layer_1" xmlns="http://www.w3.org/2000/svg" xmlns:xlink="http://www.w3.org/1999/xlink" x="0px" y="0px"
	 viewBox="0 0 27 27.8" style="enable-background:new 0 0 27 27.8;" xml:space="preserve">
<style type="text/css">
	.st0{fill:none;stroke:#000000;stroke-width:3;stroke-miterlimit:10;}
</style>
<g>
	<g>
		<path fill="#fff" stroke="#aac426" d="M11.9,25.7c-0.3,0-0.5-0.1-0.7-0.2c-0.5-0.3-0.8-0.8-0.8-1.3v-8.7c0-0.1,0-0.2-0.1-0.3L2.6,4.1
			C2.3,3.6,2.3,3,2.5,2.5C2.8,2,3.3,1.7,3.9,1.7h19c0.6,0,1.1,0.3,1.3,0.8c0.3,0.5,0.2,1.1-0.1,1.6l-7.6,11.2
			c-0.1,0.1-0.1,0.2-0.1,0.3v6.9c0,0.5-0.3,1-0.7,1.3l-3,1.8C12.4,25.7,12.1,25.7,11.9,25.7z"/>
	</g>
</g>
</svg>
