<?xml version="1.0" encoding="utf-8"?>
<!-- Generator: Adobe Illustrator 19.2.1, SVG Export Plug-In . SVG Version: 6.00 Build 0)  -->
<svg version="1.1" id="Layer_1" xmlns="http://www.w3.org/2000/svg" xmlns:xlink="http://www.w3.org/1999/xlink" x="0px" y="0px"
	 viewBox="0 0 76.5 90.7" style="enable-background:new 0 0 76.5 90.7;" xml:space="preserve">
<style type="text/css">
	.st0{fill:#FFFFFF;}
	.st1{fill:#FFF200;stroke:#FFF200;stroke-width:0.3;}
	.st2{fill:#39B54A;stroke:#39B54A;stroke-width:0.3;}
</style>
<g>
	<rect width="76.5" height="90.7"/>
	<g>
		<circle class="st0" cx="51" cy="76.4" r="2.4"/>
		<circle class="st0" cx="56.6" cy="76.4" r="2.4"/>
		<circle class="st0" cx="62.3" cy="76.4" r="2.4"/>
		<circle class="st0" cx="68" cy="76.4" r="2.4"/>
		<circle class="st0" cx="51" cy="82.1" r="2.4"/>
		<circle class="st0" cx="45.3" cy="82.1" r="2.4"/>
		<circle class="st0" cx="56.6" cy="82.1" r="2.4"/>
		<circle class="st0" cx="62.3" cy="82.1" r="2.4"/>
		<circle class="st0" cx="68" cy="82.1" r="2.4"/>
	</g>
	<path class="st1" d="M47.9,45.7c-1.3,0-2.4,1.1-2.4,2.4c0,1.3,1.1,2.4,2.4,2.4c0,0,4.5,0,8.7,0c-5.6,5.6-20,20-20,20
		c-2.3,2.3-5.3,3.5-8.5,3.5c-3.1,0-6-1.2-8.2-3.4c-4.6-4.6-4.6-12.1,0-16.7c3.2-3.2,7.8-4.2,11.9-2.9c-3,3-9.4,9.4-9.4,9.4
		c-0.5,0.5-0.7,1.1-0.7,1.7c0,0.6,0.2,1.2,0.7,1.7c0.9,0.9,2.4,0.9,3.4,0L37.6,52c0.5-0.5,0.8-1.2,0.7-1.9c-0.1-0.7-0.5-1.4-1.1-1.7
		c-3.1-2-6.9-2.9-10.6-2.5c-3.8,0.4-7.3,2.1-10,4.8c-6.5,6.5-6.5,17,0,23.4c3.1,3.1,7.2,4.8,11.5,4.8c4.5,0,8.7-1.8,11.9-4.9l24-24
		c0.7-0.7,0.9-1.7,0.5-2.6c-0.4-0.9-1.2-1.5-2.2-1.5H47.9z"/>
	<path class="st2" d="M47.9,40c-1.3,0-2.4,1.1-2.4,2.4c0,1.3,1.1,2.4,2.4,2.4h14.4c1.8,0,3.3,1.5,3.3,3.3c0,0.9-0.3,1.7-1,2.3
		L40.5,74.5c-3.3,3.3-7.7,5.2-12.4,5.2c-4.6,0-8.9-1.8-12.2-5.1c-3.3-3.3-5.1-7.7-5.1-12.3c0-4.7,1.8-9,5.1-12.3
		c5.8-5.8,14.9-6.8,21.8-2.3c0.2,0.1,0.4,0.3,0.5,0.4c1.3,1.3,1.3,3.4,0,4.6c0,0-11.7,12-11.7,12c-0.9,0.9-0.9,2.4,0,3.4
		c0.9,0.9,2.4,0.9,3.4,0l11.7-12c0,0,0,0,0,0c1.5-1.5,2.4-3.5,2.4-5.7c0-2.1-0.8-4.2-2.4-5.7c-0.4-0.4-0.8-0.8-1.3-1.1
		c-4.2-2.7-9.3-3.9-14.3-3.4c-5.1,0.5-9.9,2.8-13.5,6.4c-4.2,4.2-6.5,9.8-6.5,15.7c0,5.9,2.3,11.5,6.5,15.7
		c4.2,4.2,9.7,6.5,15.6,6.5c5.9,0,11.5-2.3,15.7-6.6L68,53.8c1.5-1.5,2.4-3.5,2.4-5.7c0-4.4-3.6-8-8-8H47.9z"/>
	<g>
		<path class="st0" d="M11.2,13.5H6.5c-0.3,0-0.5-0.1-0.5-0.4v-0.4c0-0.2,0-0.3,0.1-0.4c0,0,0.2-0.1,0.3-0.1c0.2,0,0.3-0.1,0.4-0.2
			C7,12,7,11.8,7,11.6V8c0-0.2,0-0.4-0.1-0.4C6.8,7.5,6.7,7.4,6.5,7.4c-0.2,0-0.3-0.1-0.3-0.1C6.1,7.2,6.1,7.1,6.1,6.9V6.5
			c0-0.3,0.2-0.4,0.5-0.4h4.2c0.2,0,0.4,0,0.4,0c0.1,0,0.2,0.1,0.2,0.3l0.4,1c0,0.1,0.1,0.2,0.1,0.3c0,0.2-0.1,0.3-0.3,0.3h-0.4
			c-0.2,0-0.4,0-0.5-0.1c-0.1-0.1-0.2-0.1-0.3-0.2c-0.3-0.2-0.6-0.3-0.9-0.3H8.7v1.5h0.8c0.2,0,0.5,0,0.8-0.1
			c0.3-0.1,0.5-0.1,0.5-0.1H11c0.1,0,0.2,0.1,0.3,0.4l0.4,1.1c0,0.1,0,0.2,0,0.2c0,0.2-0.1,0.3-0.3,0.3h-0.5c-0.2,0-0.4-0.1-0.6-0.2
			c-0.2-0.1-0.5-0.2-0.7-0.2H8.7v2h1c0.4,0,0.8-0.1,1-0.3c0.1-0.1,0.2-0.2,0.2-0.3c0.1-0.1,0.3-0.2,0.5-0.2h0.4
			c0.3,0,0.4,0.1,0.4,0.3c0,0.1,0,0.1-0.1,0.2l-0.4,1.1C11.7,13.4,11.5,13.5,11.2,13.5z"/>
		<path class="st0" d="M14.7,11.6c0,0.2,0,0.4,0.1,0.4c0.1,0.1,0.2,0.1,0.4,0.2c0.2,0,0.3,0.1,0.3,0.1c0.1,0.1,0.1,0.2,0.1,0.4v0.4
			c0,0.3-0.2,0.4-0.5,0.4H13c-0.3,0-0.4-0.1-0.4-0.4v-0.4c0-0.2,0-0.3,0.1-0.4c0,0,0.1-0.1,0.3-0.1c0.2,0,0.3-0.1,0.3-0.2
			c0-0.1,0.1-0.2,0.1-0.4V8c0-0.2,0-0.3-0.1-0.4c-0.1-0.1-0.2-0.2-0.3-0.2c-0.2,0-0.3-0.1-0.3-0.1c-0.1-0.1-0.1-0.2-0.1-0.4V6.5
			c0-0.3,0.1-0.4,0.4-0.4h2.3c0.2,0,0.4,0.1,0.5,0.4l2,4.7V8c0-0.2,0-0.4-0.1-0.4c-0.1-0.1-0.2-0.1-0.3-0.2c-0.2,0-0.3-0.1-0.3-0.1
			C17,7.2,17,7.1,17,6.9V6.5c0-0.3,0.1-0.4,0.4-0.4h2.1c0.3,0,0.4,0.1,0.4,0.4v0.4c0,0.2,0,0.4-0.1,0.4c0,0-0.1,0.1-0.4,0.1
			c-0.2,0.1-0.3,0.3-0.3,0.6v5c0,0.2,0,0.3-0.1,0.3c-0.1,0.1-0.2,0.1-0.4,0.1h-1c-0.3,0-0.5-0.1-0.7-0.4l-2.2-5.2V11.6z"/>
		<path class="st0" d="M23.4,7.4h-0.7c-0.5,0-0.8,0.1-1.1,0.2c-0.1,0.1-0.2,0.2-0.2,0.2C21.3,7.9,21.1,8,20.9,8h-0.3
			c-0.3,0-0.4-0.1-0.4-0.3c0-0.1,0-0.1,0.1-0.2l0.4-1c0-0.1,0.1-0.2,0.2-0.3c0.1,0,0.2,0,0.4,0h3.7c0.3,0,0.5,0.1,0.5,0.4v0.5
			c0,0.2-0.1,0.5-0.2,0.7l-3.3,4.4H23c0.4,0,0.8-0.1,1-0.2c0.1-0.1,0.2-0.2,0.2-0.2c0.1-0.1,0.3-0.2,0.5-0.2h0.4
			c0.3,0,0.4,0.1,0.4,0.3c0,0.1,0,0.1-0.1,0.2l-0.4,1.1c-0.1,0.1-0.1,0.2-0.2,0.3c-0.1,0-0.2,0.1-0.4,0.1h-4.1
			c-0.3,0-0.5-0.1-0.5-0.4v-0.7c0-0.2,0.1-0.5,0.2-0.6L23.4,7.4z"/>
		<path class="st0" d="M31.1,6.1c0.3,0,0.5,0.1,0.5,0.4v0.4c0,0.2,0,0.3-0.1,0.4c-0.1,0-0.2,0.1-0.3,0.1c-0.1,0.1-0.2,0.1-0.2,0.3
			c0,0,0,0.1,0,0.2l1.3,3.8c0.1,0.3,0.3,0.6,0.5,0.7c0.1,0,0.2,0.1,0.3,0.1c0.1,0.1,0.2,0.2,0.2,0.3v0.4c0,0.3-0.2,0.4-0.5,0.4h-2.5
			c-0.3,0-0.5-0.1-0.5-0.4v-0.4c0-0.2,0-0.3,0.1-0.4c0,0,0.1,0,0.3-0.1c0.3-0.1,0.4-0.2,0.4-0.3c0-0.1,0-0.2-0.1-0.3l-0.1-0.4h-2.4
			l-0.1,0.4c0,0.1-0.1,0.2-0.1,0.3c0,0.2,0.1,0.3,0.4,0.3c0.2,0.1,0.3,0.1,0.3,0.1c0.1,0.1,0.1,0.2,0.1,0.4v0.4
			c0,0.3-0.2,0.4-0.5,0.4H26c-0.3,0-0.5-0.1-0.5-0.4v-0.4c0-0.2,0.1-0.3,0.2-0.3c0.1,0,0.2-0.1,0.3-0.1c0.2-0.1,0.3-0.3,0.5-0.7
			l1.2-3.8c0-0.1,0-0.2,0-0.2c0-0.1-0.1-0.2-0.2-0.2c-0.1,0-0.2-0.1-0.3-0.1c-0.1-0.1-0.2-0.2-0.2-0.3V6.5c0-0.3,0.2-0.4,0.5-0.4
			H31.1 M28.5,9.9h1.6l-0.8-2.6L28.5,9.9z"/>
		<path class="st0" d="M39.6,7.4h-0.7c-0.5,0-0.8,0.1-1.1,0.2c-0.1,0.1-0.2,0.2-0.2,0.2C37.5,7.9,37.3,8,37.1,8h-0.3
			c-0.3,0-0.4-0.1-0.4-0.3c0-0.1,0-0.1,0.1-0.2l0.4-1c0-0.1,0.1-0.2,0.2-0.3c0.1,0,0.2,0,0.4,0h3.7c0.3,0,0.5,0.1,0.5,0.4v0.5
			c0,0.2-0.1,0.5-0.2,0.7L38,12.1h1.1c0.4,0,0.8-0.1,1-0.2c0.1-0.1,0.2-0.2,0.2-0.2c0.1-0.1,0.3-0.2,0.5-0.2h0.4
			c0.3,0,0.4,0.1,0.4,0.3c0,0.1,0,0.1-0.1,0.2l-0.4,1.1c-0.1,0.1-0.1,0.2-0.2,0.3c-0.1,0-0.2,0.1-0.4,0.1h-4.1
			c-0.3,0-0.5-0.1-0.5-0.4v-0.7c0-0.2,0.1-0.5,0.2-0.6L39.6,7.4z"/>
		<path class="st0" d="M47.5,6.1c0.3,0,0.5,0.1,0.5,0.4v0.4c0,0.2,0,0.3-0.1,0.4c-0.1,0-0.2,0.1-0.3,0.1c-0.1,0.1-0.2,0.1-0.2,0.3
			c0,0,0,0.1,0,0.2l1.3,3.8c0.1,0.3,0.3,0.6,0.5,0.7c0.1,0,0.2,0.1,0.3,0.1c0.1,0.1,0.2,0.2,0.2,0.3v0.4c0,0.3-0.2,0.4-0.5,0.4h-2.5
			c-0.3,0-0.5-0.1-0.5-0.4v-0.4c0-0.2,0-0.3,0.1-0.4c0,0,0.1,0,0.3-0.1c0.3-0.1,0.4-0.2,0.4-0.3c0-0.1,0-0.2-0.1-0.3l-0.1-0.4h-2.4
			l-0.1,0.4c0,0.1-0.1,0.2-0.1,0.3c0,0.2,0.1,0.3,0.4,0.3c0.2,0.1,0.3,0.1,0.3,0.1c0.1,0.1,0.1,0.2,0.1,0.4v0.4
			c0,0.3-0.2,0.4-0.5,0.4h-2.3c-0.3,0-0.5-0.1-0.5-0.4v-0.4c0-0.2,0.1-0.3,0.2-0.3c0.1,0,0.2-0.1,0.3-0.1c0.2-0.1,0.3-0.3,0.5-0.7
			l1.2-3.8c0-0.1,0-0.2,0-0.2c0-0.1-0.1-0.2-0.2-0.2c-0.1,0-0.2-0.1-0.3-0.1c-0.1-0.1-0.2-0.2-0.2-0.3V6.5c0-0.3,0.2-0.4,0.5-0.4
			H47.5 M44.9,9.9h1.6l-0.8-2.6L44.9,9.9z"/>
		<path class="st0" d="M50.2,13.5c-0.3,0-0.5-0.1-0.5-0.4v-0.4c0-0.2,0-0.3,0.1-0.4c0,0,0.2-0.1,0.3-0.1c0.2,0,0.3-0.1,0.4-0.2
			c0.1-0.1,0.1-0.2,0.1-0.4V8c0-0.2,0-0.4-0.1-0.4c-0.1-0.1-0.2-0.1-0.4-0.2c-0.2,0-0.3-0.1-0.3-0.1c-0.1-0.1-0.1-0.2-0.1-0.4V6.5
			c0-0.3,0.2-0.4,0.5-0.4h2.9c1.1,0,2,0.3,2.7,1c0.7,0.7,1,1.6,1,2.7c0,0.6-0.1,1.1-0.3,1.7c-0.2,0.5-0.5,0.9-0.9,1.2
			c-0.6,0.5-1.4,0.7-2.4,0.7H50.2 M52.9,7.4h-0.6v4.7h0.6c0.6,0,1.1-0.2,1.4-0.6c0.3-0.4,0.5-1,0.5-1.7c0-0.7-0.2-1.3-0.5-1.7
			C54,7.6,53.5,7.4,52.9,7.4z"/>
		<path class="st0" d="M61.7,13.5H57c-0.3,0-0.5-0.1-0.5-0.4v-0.4c0-0.2,0-0.3,0.1-0.4c0,0,0.2-0.1,0.3-0.1c0.2,0,0.3-0.1,0.4-0.2
			c0.1-0.1,0.1-0.2,0.1-0.4V8c0-0.2,0-0.4-0.1-0.4c-0.1-0.1-0.2-0.1-0.4-0.2c-0.2,0-0.3-0.1-0.3-0.1c-0.1-0.1-0.1-0.2-0.1-0.4V6.5
			c0-0.3,0.2-0.4,0.5-0.4h4.2c0.2,0,0.4,0,0.4,0c0.1,0,0.2,0.1,0.2,0.3l0.4,1c0,0.1,0.1,0.2,0.1,0.3C62.3,7.9,62.2,8,62,8h-0.4
			c-0.2,0-0.4,0-0.5-0.1c-0.1-0.1-0.2-0.1-0.3-0.2c-0.3-0.2-0.6-0.3-0.9-0.3h-0.9v1.5h0.8c0.2,0,0.5,0,0.8-0.1
			c0.3-0.1,0.5-0.1,0.5-0.1h0.2c0.1,0,0.2,0.1,0.3,0.4l0.4,1.1c0,0.1,0,0.2,0,0.2c0,0.2-0.1,0.3-0.3,0.3h-0.5
			c-0.2,0-0.4-0.1-0.6-0.2c-0.2-0.1-0.5-0.2-0.7-0.2h-0.9v2h1c0.4,0,0.8-0.1,1-0.3c0.1-0.1,0.2-0.2,0.2-0.3c0.1-0.1,0.3-0.2,0.5-0.2
			h0.4c0.3,0,0.4,0.1,0.4,0.3c0,0.1,0,0.1-0.1,0.2l-0.4,1.1C62.2,13.4,62,13.5,61.7,13.5z"/>
		<path class="st0" d="M65.2,11.6c0,0.2,0,0.4,0.1,0.4c0.1,0.1,0.2,0.1,0.4,0.2c0.2,0,0.3,0.1,0.3,0.1c0.1,0.1,0.1,0.2,0.1,0.4v0.4
			c0,0.3-0.2,0.4-0.5,0.4h-2.1c-0.3,0-0.4-0.1-0.4-0.4v-0.4c0-0.2,0-0.3,0.1-0.4c0,0,0.1-0.1,0.3-0.1c0.2,0,0.3-0.1,0.3-0.2
			c0-0.1,0.1-0.2,0.1-0.4V8c0-0.2,0-0.3-0.1-0.4c-0.1-0.1-0.2-0.2-0.3-0.2c-0.2,0-0.3-0.1-0.3-0.1c-0.1-0.1-0.1-0.2-0.1-0.4V6.5
			c0-0.3,0.1-0.4,0.4-0.4h2.3c0.2,0,0.4,0.1,0.5,0.4l2,4.7V8c0-0.2,0-0.4-0.1-0.4c-0.1-0.1-0.2-0.1-0.3-0.2c-0.2,0-0.3-0.1-0.3-0.1
			c-0.1-0.1-0.1-0.2-0.1-0.4V6.5c0-0.3,0.1-0.4,0.4-0.4H70c0.3,0,0.4,0.1,0.4,0.4v0.4c0,0.2,0,0.4-0.1,0.4c0,0-0.1,0.1-0.4,0.1
			c-0.2,0.1-0.3,0.3-0.3,0.6v5c0,0.2,0,0.3-0.1,0.3c-0.1,0.1-0.2,0.1-0.4,0.1h-1c-0.3,0-0.5-0.1-0.7-0.4l-2.2-5.2V11.6z"/>
	</g>
</g>
</svg>
