<?xml version="1.0" encoding="iso-8859-1"?>
<!-- Generator: Adobe Illustrator 19.1.0, SVG Export Plug-In . SVG Version: 6.00 Build 0)  -->
<svg version="1.1" id="Laag_1" xmlns="http://www.w3.org/2000/svg" xmlns:xlink="http://www.w3.org/1999/xlink" x="0px" y="0px"
	 viewBox="0 0 283.46 85.04" style="enable-background:new 0 0 283.46 85.04;" xml:space="preserve">
<g>
	<path style="fill:#008296;" d="M119.49,18.56c0.414-1.248,0.965-2.702,0.965-4.017c0-2.286-1.31-3.533-3.032-4.573V9.764h12.333
		V9.97L113.84,56.792c-2.963-0.969-6.063-1.869-8.68-3.463c-3.789-2.285-4.823-4.225-6.339-8.313L88.349,15.998
		c-0.827-2.425-1.585-4.294-3.376-6.027V9.764h15.57V9.97l-0.069,0.348c0,1.94,1.516,5.956,2.137,7.825l8.749,25.49L119.49,18.56z"
		/>
	<path style="fill:#008296;" d="M139.617,23.477c1.86,0,3.376-0.206,4.685-1.038h0.207v25.28c0,3.185-0.207,5.194,2.411,7.411v0.208
		h-16.742v-0.208c2.619-2.217,2.411-4.225,2.411-7.411V31.096c0-3.254,0.207-5.263-2.343-7.411v-0.208H139.617z M131.625,15.72
		c0-3.74,2.756-6.856,6.545-6.856c3.582,0,6.476,2.977,6.476,6.511c0,3.808-3.032,6.717-6.752,6.717
		C134.519,22.091,131.625,19.045,131.625,15.72z"/>
	<path style="fill:#008296;" d="M150.847,29.85h-4.135v-4.779c5.926-0.485,10.748-5.679,11.299-11.498h4.754v9.904h7.647v8.45
		h-0.207c-1.859-2.146-2.824-2.008-5.718-2.008h-1.722v12.952c0,2.494-0.069,4.294,2.135,5.748c1.654,1.108,3.652,1.177,5.512,1.248
		l-3.032,5.886c-1.79,0.139-3.652,0.485-5.442,0.485c-2.825,0-6.407-0.762-8.613-2.7c-2.618-2.356-2.48-5.679-2.48-8.936V29.85z"/>
	<path style="fill:#008296;" d="M204.103,56.03l-2.756,0.208c-3.515,0-6.752-0.762-9.371-3.185
		c-3.237-3.048-2.961-6.234-2.961-10.321v-2.286l-2.206,1.04c-1.722,0.831-3.927,1.871-3.927,4.156c0,2.423,1.721,4.502,4.203,4.502
		c0.482,0,0.895-0.071,1.378-0.14L185.5,56.03l-3.513,0.208c-2.342,0-5.374-0.415-7.371-1.662c-2.756-1.663-4.549-4.917-4.549-8.102
		c0-12.815,18.948-8.59,18.948-14.406c0-2.148-2.688-2.91-4.411-2.91c-2.823,0-6.131,0.971-8.681,2.285l3.239-7.896
		c2.825-0.76,5.718-0.969,8.681-0.969c3.237,0,6.89,0.623,9.577,2.631c3.444,2.633,3.789,6.65,3.789,10.667v5.542
		c0,4.64-0.207,8.45,5.719,8.588L204.103,56.03z"/>
	<path style="fill:#008296;" d="M215.055,9.764c2.413,0,4.272-0.348,6.201-1.108h0.207v39.063c0,3.185-0.207,5.194,2.342,7.411
		v0.208h-16.604v-0.208c2.548-2.217,2.342-4.225,2.342-7.411V17.452c0-3.463,0.206-5.056-2.204-7.481V9.764H215.055z"/>
	<path style="fill:#008296;" d="M236.069,23.477c1.859,0,3.376-0.206,4.684-1.038h0.207v25.28c0,3.185-0.207,5.194,2.412,7.411
		v0.208H226.63v-0.208c2.617-2.217,2.412-4.225,2.412-7.411V31.096c0-3.254,0.205-5.263-2.343-7.411v-0.208H236.069z M228.076,15.72
		c0-3.74,2.757-6.856,6.547-6.856c3.581,0,6.476,2.977,6.476,6.511c0,3.808-3.033,6.717-6.752,6.717
		C230.972,22.091,228.076,19.045,228.076,15.72z"/>
	<path style="fill:#008296;" d="M245.371,43.771c3.856,3.185,9.505,5.402,14.467,5.402c3.1,0,7.302-1.038,7.302-4.917
		c0-8.45-21.014-6.719-21.014-22.234c0-3.948,1.93-7.756,5.098-10.042c3.515-2.494,7.786-3.325,11.989-3.325
		c3.86,0,7.994,0.692,11.575,2.077v8.104c-2.893-1.871-6.269-3.256-9.713-3.256c-2.688,0-5.996,1.177-5.996,4.433
		c0,3.325,3.999,4.64,6.547,5.748c3.308,1.454,6.407,2.771,9.162,5.196c3.307,2.908,5.098,6.025,5.098,10.458
		c0,4.502-1.859,8.519-5.51,11.219c-4.065,2.979-8.474,3.602-13.367,3.602c-4.547,0-9.093-0.831-13.364-2.494L245.371,43.771z"/>
</g>
<g>
	<g>
		<g>
			
				<line style="fill:none;stroke:#008296;stroke-width:0.9604;stroke-linecap:round;" x1="42.586" y1="4.178" x2="42.586" y2="28.426"/>
			
				<line style="fill:none;stroke:#008296;stroke-width:0.9604;stroke-linecap:round;" x1="37.983" y1="4.675" x2="42.586" y2="12.992"/>
			
				<line style="fill:none;stroke:#008296;stroke-width:0.9604;stroke-linecap:round;" x1="32.482" y1="5.741" x2="52.464" y2="20.111"/>
			
				<line style="fill:none;stroke:#008296;stroke-width:0.9604;stroke-linecap:round;" x1="47.132" y1="21.626" x2="42.586" y2="12.846"/>
			
				<line style="fill:none;stroke:#008296;stroke-width:0.9604;stroke-linecap:round;" x1="46.964" y1="4.564" x2="38.096" y2="21.177"/>
			
				<line style="fill:none;stroke:#008296;stroke-width:0.9604;stroke-linecap:round;" x1="52.295" y1="5.573" x2="32.539" y2="20.166"/>
			
				<line style="fill:none;stroke:#008296;stroke-width:0.9604;stroke-linecap:round;" x1="27.544" y1="8.66" x2="57.46" y2="17.191"/>
			
				<line style="fill:none;stroke:#008296;stroke-width:0.9604;stroke-linecap:round;" x1="27.487" y1="17.417" x2="57.234" y2="8.49"/>
			
				<line style="fill:none;stroke:#008296;stroke-width:0.9604;stroke-linecap:round;" x1="25.524" y1="12.982" x2="59.648" y2="12.757"/>
		</g>
		<path style="fill:#BE2B31;stroke:#BE2B31;stroke-width:0.144;" d="M42.586,41.138c2.637-2.496,4.097-4.751,4.209-9.239
			c0.112-4.492-4.209-6.258-4.209-6.258l0,0c0,0-4.322,1.766-4.21,6.258C38.487,36.387,39.948,38.642,42.586,41.138L42.586,41.138z"
			/>
	</g>
	<g>
		<g>
			
				<line style="fill:none;stroke:#008296;stroke-width:0.9604;stroke-linecap:round;" x1="80.134" y1="30.645" x2="57.2" y2="38.512"/>
			
				<line style="fill:none;stroke:#008296;stroke-width:0.9604;stroke-linecap:round;" x1="78.171" y1="26.45" x2="71.796" y2="33.505"/>
			
				<line style="fill:none;stroke:#008296;stroke-width:0.9604;stroke-linecap:round;" x1="75.377" y1="21.594" x2="68.271" y2="45.156"/>
			
				<line style="fill:none;stroke:#008296;stroke-width:0.9604;stroke-linecap:round;" x1="65.108" y1="40.606" x2="71.935" y2="33.456"/>
			
				<line style="fill:none;stroke:#008296;stroke-width:0.9604;stroke-linecap:round;" x1="81.191" y1="34.908" x2="62.6" y2="31.915"/>
			
				<line style="fill:none;stroke:#008296;stroke-width:0.9604;stroke-linecap:round;" x1="81.967" y1="40.28" x2="61.753" y2="26.329"/>
			
				<line style="fill:none;stroke:#008296;stroke-width:0.9604;stroke-linecap:round;" x1="71.014" y1="17.87" x2="72.653" y2="48.932"/>
			
				<line style="fill:none;stroke:#008296;stroke-width:0.9604;stroke-linecap:round;" x1="62.713" y1="20.658" x2="80.809" y2="45.899"/>
			
				<line style="fill:none;stroke:#008296;stroke-width:0.9604;stroke-linecap:round;" x1="66.27" y1="17.361" x2="77.559" y2="49.566"/>
		</g>
		<path style="fill:#BE2B31;stroke:#BE2B31;stroke-width:0.144;" d="M45.179,42.638c3.214,1.687,5.821,2.334,10.105,0.985
			c4.284-1.353,4.548-6.015,4.548-6.015l0,0c0,0-3.069-3.517-7.279-1.952C48.341,37.22,46.68,39.333,45.179,42.638L45.179,42.638z"
			/>
	</g>
	<g>
		<g>
			
				<line style="fill:none;stroke:#008296;stroke-width:0.9604;stroke-linecap:round;" x1="67.19" y1="74.88" x2="52.189" y2="55.833"/>
			
				<line style="fill:none;stroke:#008296;stroke-width:0.9604;stroke-linecap:round;" x1="70.499" y1="71.643" x2="61.736" y2="67.956"/>
			
				<line style="fill:none;stroke:#008296;stroke-width:0.9604;stroke-linecap:round;" x1="74.16" y1="67.402" x2="49.573" y2="68.476"/>
			
				<line style="fill:none;stroke:#008296;stroke-width:0.9604;stroke-linecap:round;" x1="52.826" y1="63.984" x2="61.827" y2="68.072"/>
			
				<line style="fill:none;stroke:#008296;stroke-width:0.9604;stroke-linecap:round;" x1="63.512" y1="77.29" x2="60.202" y2="58.75"/>
			
				<line style="fill:none;stroke:#008296;stroke-width:0.9604;stroke-linecap:round;" x1="58.698" y1="79.792" x2="65.193" y2="56.104"/>
			
				<line style="fill:none;stroke:#008296;stroke-width:0.9604;stroke-linecap:round;" x1="76.235" y1="62.053" x2="47.454" y2="73.858"/>
			
				<line style="fill:none;stroke:#008296;stroke-width:0.9604;stroke-linecap:round;" x1="70.862" y1="55.142" x2="53.013" y2="80.557"/>
			
				<line style="fill:none;stroke:#008296;stroke-width:0.9604;stroke-linecap:round;" x1="75.149" y1="57.407" x2="48.478" y2="78.696"/>
		</g>
		<path style="fill:#BE2B31;stroke:#BE2B31;stroke-width:0.144;" d="M44.326,45.848c-0.53,3.59-0.28,6.264,2.409,9.86
			c2.69,3.596,7.175,2.308,7.175,2.308l-0.001,0.002c0,0,2.307-4.057-0.56-7.516c-2.866-3.463-5.407-4.332-9.021-4.654H44.326z"/>
	</g>
	<g>
		<g>
			
				<line style="fill:none;stroke:#008296;stroke-width:0.9604;stroke-linecap:round;" x1="5.117" y1="31.741" x2="28.245" y2="39.022"/>
			
				<line style="fill:none;stroke:#008296;stroke-width:0.9604;stroke-linecap:round;" x1="4.21" y1="36.279" x2="13.526" y2="34.388"/>
			
				<line style="fill:none;stroke:#008296;stroke-width:0.9604;stroke-linecap:round;" x1="3.574" y1="41.846" x2="23.281" y2="27.105"/>
			
				<line style="fill:none;stroke:#008296;stroke-width:0.9604;stroke-linecap:round;" x1="23.125" y1="32.643" x2="13.387" y2="34.344"/>
			<line style="fill:none;stroke:#008296;stroke-width:0.9604;stroke-linecap:round;" x1="6.8" y1="27.68" x2="19.982" y2="41.13"/>
			
				<line style="fill:none;stroke:#008296;stroke-width:0.9604;stroke-linecap:round;" x1="9.365" y1="22.898" x2="17.35" y2="46.121"/>
			
				<line style="fill:none;stroke:#008296;stroke-width:0.9604;stroke-linecap:round;" x1="4.876" y1="47.432" x2="21.998" y2="21.462"/>
			
				<line style="fill:none;stroke:#008296;stroke-width:0.9604;stroke-linecap:round;" x1="13.211" y1="50.118" x2="13.631" y2="19.064"/>
			
				<line style="fill:none;stroke:#008296;stroke-width:0.9604;stroke-linecap:round;" x1="8.391" y1="50.66" x2="18.425" y2="18.04"/>
		</g>
		<path style="fill:#BE2B31;stroke:#BE2B31;stroke-width:0.144;" d="M40.367,42.839c-1.585-3.264-3.298-5.333-7.546-6.79
			c-4.249-1.456-7.229,2.138-7.229,2.138h0.001c0,0,0.382,4.652,4.698,5.892C34.608,45.32,37.198,44.606,40.367,42.839
			L40.367,42.839z"/>
	</g>
	<g>
		<g>
			
				<line style="fill:none;stroke:#008296;stroke-width:0.9604;stroke-linecap:round;" x1="18.778" y1="75.284" x2="33.506" y2="56.025"/>
			
				<line style="fill:none;stroke:#008296;stroke-width:0.9604;stroke-linecap:round;" x1="22.736" y1="77.685" x2="24.133" y2="68.28"/>
			
				<line style="fill:none;stroke:#008296;stroke-width:0.9604;stroke-linecap:round;" x1="27.753" y1="80.176" x2="20.609" y2="56.626"/>
			
				<line style="fill:none;stroke:#008296;stroke-width:0.9604;stroke-linecap:round;" x1="25.765" y1="58.663" x2="24.044" y2="68.395"/>
			
				<line style="fill:none;stroke:#008296;stroke-width:0.9604;stroke-linecap:round;" x1="15.535" y1="72.321" x2="32.67" y2="64.506"/>
			
				<line style="fill:none;stroke:#008296;stroke-width:0.9604;stroke-linecap:round;" x1="11.912" y1="68.28" x2="36.47" y2="68.689"/>
			
				<line style="fill:none;stroke:#008296;stroke-width:0.9604;stroke-linecap:round;" x1="33.449" y1="80.862" x2="14.867" y2="55.914"/>
			
				<line style="fill:none;stroke:#008296;stroke-width:0.9604;stroke-linecap:round;" x1="38.813" y1="73.939" x2="9.762" y2="62.957"/>
			
				<line style="fill:none;stroke:#008296;stroke-width:0.9604;stroke-linecap:round;" x1="37.679" y1="78.656" x2="10.436" y2="58.107"/>
		</g>
		<path style="fill:#BE2B31;stroke:#BE2B31;stroke-width:0.144;" d="M41.227,45.927c-3.61,0.38-6.139,1.284-8.955,4.781
			c-2.817,3.499-0.454,7.524-0.454,7.524h-0.001c0,0,4.503,1.226,7.141-2.409C41.597,52.187,41.809,49.511,41.227,45.927
			L41.227,45.927z"/>
	</g>
</g>
<g>
	<path style="fill:#BE2B31;" d="M92.476,62.994c1.254,0,2.295,0,3.29,0.717c0.97,0.695,1.585,1.564,1.585,2.694
		c0,1.456-1.088,2.325-2.509,2.759c2.036,0.262,3.408,1.826,3.408,3.716c0,1.348-0.568,2.478-1.68,3.368
		c-1.278,1.021-2.532,1.043-4.213,1.043h-6.934v-0.065c1.16-0.673,0.994-1.89,0.994-3.042v-8.104c0-1.13,0.166-2.368-0.994-3.021
		v-0.064H92.476z M90.795,68.469c0.166,0.044,0.284,0.088,0.45,0.088c1.136,0,1.728-0.935,1.728-1.869
		c0-0.848-0.473-1.673-1.491-1.673c-0.237,0-0.45,0.043-0.687,0.13V68.469z M90.795,74.988c0.355,0.217,0.615,0.26,1.042,0.26
		c1.538,0,2.154-1.173,2.154-2.434c0-1.65-0.829-2.39-2.627-2.39h-0.568V74.988z"/>
	<path style="fill:#BE2B31;" d="M102.229,67.296c0.639,0,1.16-0.065,1.609-0.326h0.071V74.9c0,1-0.071,1.63,0.828,2.325v0.065
		h-5.751v-0.065c0.899-0.695,0.829-1.325,0.829-2.325v-5.215c0-1.021,0.071-1.65-0.805-2.324v-0.065H102.229z M99.483,64.862
		c0-1.173,0.947-2.151,2.249-2.151c1.23,0,2.225,0.935,2.225,2.043c0,1.195-1.042,2.107-2.319,2.107
		C100.477,66.861,99.483,65.905,99.483,64.862z"/>
	<path style="fill:#BE2B31;" d="M105.732,72.381c0-3.325,2.603-5.367,6.153-5.367c1.515,0,2.982,0.326,4.142,1.238
		c1.231,0.935,1.964,2.434,1.964,3.911c0,3.433-2.698,5.41-6.295,5.41C108.312,77.573,105.732,75.596,105.732,72.381z
		 M114.016,72.619c0-1.347-0.308-3.52-2.225-3.52c-1.681,0-2.083,1.434-2.083,2.716c0,1.456,0.189,3.737,2.272,3.737
		C113.779,75.553,114.016,73.901,114.016,72.619z"/>
	<path style="fill:#BE2B31;" d="M121.709,62.994c0.828,0,1.467-0.109,2.13-0.348h0.071V74.9c0,1-0.071,1.63,0.804,2.325v0.065
		h-5.704v-0.065c0.876-0.695,0.805-1.325,0.805-2.325v-9.495c0-1.086,0.071-1.586-0.757-2.347v-0.064H121.709z"/>
	<path style="fill:#BE2B31;" d="M125.805,72.381c0-3.325,2.603-5.367,6.153-5.367c1.515,0,2.982,0.326,4.142,1.238
		c1.23,0.935,1.964,2.434,1.964,3.911c0,3.433-2.698,5.41-6.295,5.41C128.385,77.573,125.805,75.596,125.805,72.381z
		 M134.088,72.619c0-1.347-0.308-3.52-2.225-3.52c-1.681,0-2.083,1.434-2.083,2.716c0,1.456,0.189,3.737,2.272,3.737
		C133.852,75.553,134.088,73.901,134.088,72.619z"/>
	<path style="fill:#BE2B31;" d="M150.255,69.143h-1.089c0.568,0.479,0.876,1.174,0.876,1.891c0,1.043-0.615,1.869-1.491,2.477
		c-0.946,0.652-2.366,0.979-3.503,0.979c-0.308,0-1.184,0.064-1.184,0.478c0,0.174,0.214,0.261,0.379,0.261l2.438-0.13
		c0.971,0,2.154,0.151,3.006,0.587c1.018,0.521,1.704,1.499,1.704,2.585c0,1.391-1.064,2.412-2.391,2.934
		c-1.254,0.478-2.981,0.587-4.33,0.587c-1.113,0-2.368-0.065-3.433-0.326c-1.088-0.282-2.319-0.935-2.319-2.107
		c0-1.217,1.231-1.891,2.438-1.891c0.615,0,1.23,0.087,1.775,0.369c-0.544,0.087-0.899,0.369-0.899,0.913
		c0,1.043,1.302,1.217,2.201,1.217c1.136,0,2.698-0.348,2.557-1.608c-0.048-0.412-0.309-0.782-0.616-1.086
		c-0.426-0.435-1.064-0.5-1.68-0.5c-0.64,0-1.278,0.108-1.917,0.108c-0.568,0-0.994-0.174-1.349-0.608
		c-0.237-0.261-0.687-0.934-0.687-1.304c0-0.369,0.639-0.499,0.899-0.587l0.663-0.238c-1.633-0.543-2.816-1.608-2.816-3.303
		c0-2.521,2.485-3.824,4.97-3.824c0.616,0,1.255,0.108,1.847,0.238l5.017-0.13L150.255,69.143z M144.693,72.555
		c1.018,0,1.396-0.761,1.396-1.564c0-0.848-0.308-2.043-1.444-2.043c-1.041,0-1.373,0.848-1.373,1.673
		C143.272,71.424,143.604,72.555,144.693,72.555z"/>
	<path style="fill:#BE2B31;" d="M154.54,67.296c0.64,0,1.16-0.065,1.609-0.326h0.071V74.9c0,1-0.071,1.63,0.828,2.325v0.065h-5.751
		v-0.065c0.899-0.695,0.828-1.325,0.828-2.325v-5.215c0-1.021,0.071-1.65-0.805-2.324v-0.065H154.54z M151.795,64.862
		c0-1.173,0.947-2.151,2.248-2.151c1.231,0,2.225,0.935,2.225,2.043c0,1.195-1.041,2.107-2.319,2.107
		C152.789,66.861,151.795,65.905,151.795,64.862z"/>
	<path style="fill:#BE2B31;" d="M157.736,74.575c1.254,0.695,2.697,1.194,4.188,1.194c0.663,0,1.681-0.151,1.681-0.955
		c0-1.456-5.656-1.543-5.656-4.477c0-1.174,0.662-2.064,1.751-2.629c1.089-0.587,2.367-0.695,3.598-0.695s2.461,0.152,3.668,0.412
		v2.26c-0.899-0.543-1.964-0.847-3.029-0.847c-0.474,0-1.396,0.108-1.396,0.695c0,0.673,0.781,0.847,1.35,0.999
		c0.852,0.239,1.822,0.479,2.579,0.935c0.994,0.587,1.799,1.435,1.799,2.542c0,2.912-3.526,3.563-6.035,3.563
		c-1.325,0-2.674-0.239-3.976-0.499L157.736,74.575z"/>
	<path style="fill:#BE2B31;" d="M178.73,69.729h-0.071c-0.71-0.435-1.468-0.717-2.414-0.717c-0.687,0-1.373,0.261-1.799,0.761
		c-0.521,0.607-0.615,1.434-0.615,2.15c0,0.891,0.308,2.021,0.994,2.717c0.521,0.564,1.372,0.76,2.153,0.76
		c1.089,0,2.319-0.435,3.124-1.021h0.071l-0.758,2.369c-1.254,0.564-2.674,0.825-4.07,0.825c-3.266,0-6.082-1.978-6.082-5.128
		c0-3.585,3.029-5.432,6.674-5.432c0.923,0,1.869,0.152,2.793,0.217V69.729z"/>
	<path style="fill:#BE2B31;" d="M185.666,67.926c0.781-0.717,1.917-0.912,2.959-0.912c1.302,0,2.461,0.348,3.337,1.26
		c0.805,0.826,0.662,1.999,0.662,3.042V74.9c0,1.021-0.07,1.652,0.829,2.325v0.065h-5.751v-0.065
		c0.898-0.673,0.828-1.304,0.828-2.325v-3.411c0-0.478,0.047-1.108-0.189-1.542c-0.236-0.436-0.733-0.674-1.254-0.674
		c-0.592,0-1.16,0.304-1.326,0.869c-0.142,0.456-0.095,1.064-0.095,1.543V74.9c0.024,1.021-0.07,1.652,0.805,2.325v0.065h-5.703
		v-0.065c0.876-0.673,0.805-1.304,0.805-2.325v-9.517c0-1.021,0.071-1.651-0.805-2.325v-0.064h3.147c0.639,0,1.16-0.065,1.681-0.348
		h0.07V67.926z"/>
	<path style="fill:#BE2B31;" d="M205.123,76.9c-1.137,0.456-2.462,0.673-3.716,0.673c-1.609,0-3.408-0.174-4.733-1.064
		c-1.515-0.999-2.153-2.629-2.153-4.259c0-3.042,2.508-5.236,5.798-5.236c3.739,0,5.538,1.977,5.609,5.323h-7.337
		c0,1.868,1.372,3.216,3.479,3.216c1.325,0,2.793-0.543,3.977-1.108L205.123,76.9z M201.904,70.49c0-0.848-0.45-1.586-1.586-1.586
		c-1.041,0-1.609,0.717-1.728,1.586H201.904z"/>
	<path style="fill:#BE2B31;" d="M219.586,75.01l2.863,0.195c2.083,0,3.242-0.348,5.018-1.348l-1.325,3.434h-12.732l7.052-12.146
		l-1.869-0.108c-1.586,0-2.722,0.348-4.118,1.043l1.254-3.085h10.863L219.586,75.01z"/>
	<path style="fill:#BE2B31;" d="M239.137,77.508l-0.946,0.065c-1.207,0-2.319-0.239-3.219-0.999
		c-1.112-0.956-1.018-1.956-1.018-3.238v-0.717l-0.758,0.326c-0.592,0.261-1.349,0.587-1.349,1.304c0,0.761,0.592,1.412,1.443,1.412
		c0.166,0,0.308-0.021,0.474-0.043l-1.018,1.89l-1.207,0.065c-0.805,0-1.846-0.13-2.532-0.521c-0.947-0.521-1.562-1.542-1.562-2.542
		c0-4.02,6.509-2.694,6.509-4.52c0-0.674-0.923-0.912-1.515-0.912c-0.971,0-2.106,0.304-2.982,0.717l1.112-2.478
		c0.971-0.239,1.965-0.304,2.982-0.304c1.112,0,2.366,0.195,3.289,0.825c1.184,0.826,1.302,2.086,1.302,3.347v1.738
		c0,1.455-0.07,2.65,1.965,2.694L239.137,77.508z"/>
	<path style="fill:#BE2B31;" d="M248.202,71.186c0-0.457,0.024-0.891-0.283-1.326c-0.284-0.412-0.758-0.63-1.278-0.63
		c-1.657,0-1.965,1.761-1.965,2.955c0,0.848,0.143,1.804,0.758,2.478c0.426,0.478,1.136,0.804,1.822,0.804h0.331l-1.112,1.847
		c-0.308,0.131-0.639,0.131-0.97,0.131c-3.054,0-5.207-2.391-5.207-5.106c0-2.781,1.988-5.345,5.23-5.345
		c0.946,0,1.822,0.26,2.674,0.738v-2.347c-0.07-1.021,0.024-1.651-0.852-2.325v-0.064h2.863c0.781,0,1.373,0,2.012-0.348h0.071
		v11.473c0,1.26,0,2.237,1.041,3.106v0.065h-5.136V71.186z"/>
	<path style="fill:#BE2B31;" d="M265.009,76.9c-1.137,0.456-2.462,0.673-3.716,0.673c-1.609,0-3.408-0.174-4.733-1.064
		c-1.515-0.999-2.153-2.629-2.153-4.259c0-3.042,2.508-5.236,5.798-5.236c3.739,0,5.538,1.977,5.609,5.323h-7.337
		c0,1.868,1.372,3.216,3.479,3.216c1.325,0,2.793-0.543,3.977-1.108L265.009,76.9z M261.79,70.49c0-0.848-0.45-1.586-1.586-1.586
		c-1.041,0-1.609,0.717-1.728,1.586H261.79z"/>
	<path style="fill:#BE2B31;" d="M271.708,68.165c0.687-0.804,1.704-1.151,2.911-1.151c1.277,0,2.461,0.304,3.337,1.238
		c0.875,0.935,0.805,1.912,0.805,3.063V74.9c0,1.021-0.071,1.652,0.828,2.325v0.065h-5.751v-0.065
		c0.899-0.673,0.828-1.304,0.828-2.325v-3.672c0-0.478,0-0.978-0.331-1.391c-0.261-0.391-0.734-0.608-1.23-0.608
		c-0.402,0-0.829,0.196-1.065,0.5c-0.354,0.413-0.331,1.021-0.331,1.499V74.9c0,1.021-0.071,1.652,0.828,2.325v0.065h-5.751v-0.065
		c0.899-0.673,0.828-1.304,0.828-2.325v-5.215c0-0.999,0.071-1.629-0.828-2.324v-0.065h3.171c0.568,0,1.065-0.087,1.681-0.326h0.071
		V68.165z"/>
</g>
</svg>
